<svg width="181" height="26" viewBox="0 0 181 26" fill="none" xmlns="http://www.w3.org/2000/svg">
<g opacity="0.8">
<path d="M45.0529 5.64892H40.671V11.9062H45.0529C47.0223 11.9062 48.3516 10.7362 48.3516 8.75213C48.3516 6.76811 47.0223 5.64892 45.0529 5.64892ZM48.4993 22.9964L44.3636 14.5007H40.671V22.9964H37.7169V2.90181H45.2498C48.9424 2.90181 51.3057 5.34368 51.3057 8.80301C51.4041 11.2958 49.7794 13.5341 47.4161 14.1446L51.8965 23.0473H48.4993V22.9964ZM61.1526 12.7202C60.4633 11.1431 58.6416 10.4818 57.1153 11.194C56.4753 11.4992 55.9337 12.0588 55.6383 12.7202C55.3921 13.3307 55.2444 13.992 55.2937 14.6533H61.5465C61.5465 13.992 61.448 13.3307 61.1526 12.7202ZM55.2937 16.6882C55.2937 19.1301 56.5738 20.7072 58.8386 20.7072C60.1187 20.758 61.3495 20.2493 62.1865 19.2319L63.959 20.9615C62.6296 22.4877 60.7587 23.3016 58.7893 23.1999C55.2937 23.1999 52.5365 21.3176 52.5365 15.8743C52.5365 11.2449 54.8506 8.54864 58.3954 8.54864C62.1373 8.54864 64.3036 11.3466 64.3036 15.4164V16.6882H55.2937ZM73.8551 12.7202C73.6331 12.1593 73.2494 11.6827 72.7561 11.355C72.2629 11.0274 71.6839 10.8646 71.098 10.8888C69.9163 10.8379 68.7839 11.5501 68.3408 12.7202C68.0947 13.3307 67.947 13.992 67.9962 14.6533H74.249C74.249 13.992 74.1013 13.3307 73.8551 12.7202ZM67.9962 16.6882C67.9962 19.1301 69.2763 20.7072 71.5411 20.7072C72.8212 20.8089 74.052 20.2493 74.889 19.2319L76.6615 20.9615C75.3321 22.4877 73.412 23.3016 71.4426 23.1999C67.947 23.1999 65.1898 21.3176 65.1898 15.8743C65.1898 11.2449 67.5038 8.54864 71.0487 8.54864C74.7906 8.54864 76.9076 11.3466 76.9076 15.4164V16.6882H67.9962ZM83.6528 11.0923C81.1418 11.0923 80.7479 13.2798 80.7479 15.8234C80.7479 18.367 81.1418 20.6054 83.6528 20.6054C86.1637 20.6054 86.5084 18.367 86.5084 15.8234C86.5084 13.2798 86.213 11.0923 83.6528 11.0923ZM86.6068 22.9964V21.4702C85.7206 22.6403 84.3421 23.2508 82.9635 23.149C81.7326 23.1999 80.5018 22.7421 79.5663 21.8772C78.1877 20.4528 77.9908 17.96 77.9908 15.8234C77.9908 13.6868 78.1385 11.2449 79.5663 9.76958C80.5018 8.90475 81.6834 8.4469 82.9143 8.49777C84.3913 8.49777 85.5237 8.85388 86.5576 10.1257V2.90181H89.364V23.0473H86.6068V22.9964ZM96.3553 22.9964V2.90181H108.812V5.64892H99.3094V11.4992H107.433V14.1955H99.3094V20.2493H108.812V22.9964H96.3553ZM114.227 22.9964C111.569 22.9964 110.436 21.165 110.436 19.0284V2.90181H113.243V18.8757C113.243 19.9949 113.637 20.5545 114.769 20.5545H116V22.9964H114.227ZM122.253 23.1999C119.988 23.1999 118.068 22.7929 116.443 21.165L118.265 19.2827C119.348 20.3002 120.776 20.8598 122.253 20.758C123.927 20.758 125.305 20.1476 125.305 18.774C125.305 17.8074 124.764 17.197 123.434 17.0952L121.219 16.8917C118.609 16.6374 117.132 15.4673 117.132 12.9237C117.132 10.1257 119.446 8.54864 122.351 8.54864C124.419 8.54864 126.191 9.0065 127.472 10.1766L125.699 12.008C124.714 11.2449 123.484 10.8888 122.253 10.9396C120.579 10.9396 119.742 11.7027 119.742 12.7711C119.742 13.6359 120.185 14.2972 121.662 14.399L123.828 14.6025C126.438 14.8568 127.964 16.1286 127.964 18.6723C127.964 21.6737 125.502 23.1999 122.203 23.1999H122.253ZM137.269 12.7202C137.047 12.1593 136.664 11.6827 136.17 11.355C135.677 11.0274 135.098 10.8646 134.512 10.8888C133.33 10.8379 132.198 11.5501 131.755 12.7202C131.509 13.3307 131.361 13.992 131.41 14.6533H137.663C137.663 13.992 137.565 13.3307 137.269 12.7202ZM131.41 16.6882C131.41 19.1301 132.69 20.7072 134.955 20.7072C136.235 20.758 137.466 20.2493 138.303 19.2319L140.125 20.9615C138.795 22.4877 136.875 23.3016 134.955 23.1999C131.46 23.1999 128.702 21.3176 128.702 15.8743C128.702 11.2449 131.016 8.54864 134.611 8.54864C138.303 8.54864 140.469 11.3466 140.469 15.4164V16.6882H131.41ZM147.461 22.9964H145.147L140.076 8.70126H143.03L146.328 18.774L149.578 8.70126H152.532L147.461 22.9964ZM156.175 22.9964H153.369V8.70126H156.175V22.9964ZM153.27 5.85241V2.80006H156.225V5.85241H153.27ZM165.973 12.7202C165.53 11.601 164.447 10.8379 163.265 10.8888C162.083 10.8379 160.951 11.5501 160.508 12.7202C160.262 13.3307 160.114 13.992 160.163 14.6533H166.416C166.367 13.992 166.268 13.3307 165.973 12.7202ZM160.114 16.6882C160.114 19.1301 161.345 20.7072 163.659 20.7072C164.939 20.758 166.17 20.2493 167.007 19.2319L168.779 20.9615C167.45 22.4877 165.53 23.3016 163.56 23.1999C160.065 23.1999 157.308 21.3176 157.308 15.8743C157.308 11.2449 159.622 8.54864 163.167 8.54864C166.859 8.54864 169.025 11.3466 169.025 15.4164V16.6882H160.114ZM178.38 12.0588C177.888 11.4484 177.1 11.0923 176.312 11.0923C174.786 11.0923 173.555 12.3641 173.555 14.2972V22.9964H170.749V8.70126H173.457V10.2783C174.343 9.15911 175.721 8.49777 177.149 8.54864C178.38 8.49777 179.611 9.0065 180.448 9.9222L178.38 12.0588ZM11.7211 12.5167C17.4815 12.5167 24.4236 11.1431 24.4236 5.59804C24.4236 1.68087 20.4356 0.205566 16.743 0.205566C11.1303 0.205566 0.791016 3.30878 0.791016 14.399C0.791016 19.9441 5.02519 23.149 11.7211 23.149C18.8109 23.149 23.9805 18.5196 25.556 12.3132C21.3711 19.4862 16.103 21.7246 11.7703 21.7246C6.40376 21.7246 4.3359 17.7566 4.3359 14.2972C4.38514 4.63147 11.9673 1.32476 16.743 1.32476C19.9925 1.32476 21.8634 3.41053 21.8634 5.69979C21.8634 11.9571 12.8042 11.8045 8.66854 11.8045H6.69916L5.81294 12.7202C8.37314 13.0254 10.8349 13.7885 13.1489 14.9586C19.057 17.96 24.6205 25.7944 31.9565 25.7944C34.6152 25.7944 35.3044 24.9804 35.7968 24.2682C32.2027 26.5575 26.1468 22.5894 22.8973 19.4862C20.2879 16.8917 17.9246 14.0429 11.7211 12.5167Z" fill="#024430"/>
</g>
</svg>
