<svg width="77" height="31" viewBox="0 0 77 31" fill="none" xmlns="http://www.w3.org/2000/svg">
<g opacity="0.8">
<path d="M76.9576 0.205582H0.965159V2.9546H76.9576V0.205582ZM76.9576 28.0652H0.965159V30.7944H76.9576V28.0652ZM74.2536 15.4643C74.2536 13.0807 74.0239 11.6227 72.4228 11.6227H71.0832V19.2739H72.4228C74.0239 19.2739 74.2536 17.82 74.2536 15.4285V15.4643ZM76.9576 15.4285C76.9576 19.1309 75.9149 21.8959 72.4228 21.8959H68.6761C68.6432 21.8982 68.61 21.8926 68.5791 21.8794C68.5481 21.8663 68.52 21.8459 68.4966 21.8196C68.4732 21.7933 68.4551 21.7617 68.4434 21.7269C68.4316 21.6921 68.4267 21.6549 68.4287 21.6178V9.25508C68.4267 9.21796 68.4316 9.18076 68.4434 9.14604C68.4551 9.11123 68.4732 9.07965 68.4966 9.05328C68.52 9.02699 68.5481 9.00657 68.5791 8.99342C68.61 8.98028 68.6432 8.97474 68.6761 8.97705H72.4228C75.9149 8.97705 76.9576 11.7578 76.9576 15.4444V15.4285ZM63.0138 19.5639V21.6336C63.0159 21.6708 63.0109 21.708 62.9992 21.7428C62.9875 21.7776 62.9694 21.8092 62.9459 21.8354C62.9226 21.8617 62.8944 21.8822 62.8635 21.8953C62.8325 21.9084 62.7995 21.9141 62.7664 21.9117H55.5595C55.5265 21.9141 55.4934 21.9084 55.4625 21.8953C55.4315 21.8822 55.4033 21.8617 55.38 21.8354C55.3565 21.8092 55.3384 21.7776 55.3267 21.7428C55.315 21.708 55.31 21.6708 55.3121 21.6336V9.25508C55.31 9.21796 55.315 9.18076 55.3267 9.14604C55.3384 9.11123 55.3565 9.07965 55.38 9.05328C55.4033 9.02699 55.4315 9.00657 55.4625 8.99342C55.4934 8.98028 55.5265 8.97474 55.5595 8.97705H62.7523C62.7853 8.97474 62.8184 8.98028 62.8494 8.99342C62.8803 9.00657 62.9084 9.02699 62.9318 9.05328C62.9552 9.07965 62.9734 9.11123 62.9851 9.14604C62.9967 9.18076 63.0018 9.21796 62.9997 9.25508V11.3288C63.0018 11.3659 62.9967 11.4031 62.9851 11.4379C62.9734 11.4727 62.9552 11.5043 62.9318 11.5306C62.9084 11.5569 62.8803 11.5773 62.8494 11.5904C62.8184 11.6036 62.7853 11.6092 62.7523 11.6069H57.9701V14.1096H62.3493C62.3824 14.1073 62.4154 14.1128 62.4464 14.126C62.4774 14.1392 62.5055 14.1595 62.5289 14.1858C62.5523 14.2122 62.5704 14.2438 62.5822 14.2786C62.5938 14.3134 62.5988 14.3505 62.5967 14.3876V16.4574C62.5988 16.4945 62.5938 16.5317 62.5822 16.5665C62.5704 16.6013 62.5523 16.6329 62.5289 16.6591C62.5055 16.6855 62.4774 16.7059 62.4464 16.7191C62.4154 16.7322 62.3824 16.7378 62.3493 16.7355H57.9701V19.3137H62.7699C62.8025 19.31 62.8353 19.3145 62.8661 19.3267C62.8969 19.339 62.925 19.3587 62.9483 19.3844C62.9715 19.4102 62.9895 19.4415 63.0008 19.4759C63.0121 19.5104 63.0166 19.5472 63.0138 19.5838V19.5639ZM50.0173 18.2451C50.0173 21.0258 48.5364 22.2176 45.6381 22.2176C42.9341 22.2176 41.6052 21.1847 41.3967 18.5986C41.3896 18.5609 41.3904 18.5218 41.3988 18.4844C41.4072 18.447 41.4231 18.4123 41.4452 18.3828C41.4674 18.3534 41.4952 18.3299 41.5266 18.3143C41.5579 18.2987 41.5921 18.2913 41.6264 18.2928H43.6057C43.7542 18.2928 43.8107 18.396 43.8531 18.543C44.0688 19.2064 44.5918 19.5322 45.6204 19.5322C46.7232 19.5322 47.4053 19.1826 47.4053 18.3404C47.4053 17.4982 47.1579 17.0215 45.5638 16.6679C43.5244 16.215 41.5522 15.2656 41.5522 12.6596C41.5522 10.2761 42.8423 8.80617 45.5638 8.80617C47.9886 8.80617 49.4519 9.83908 49.6568 12.3339C49.6647 12.3732 49.6647 12.4139 49.6568 12.4533C49.6491 12.4926 49.6336 12.5295 49.6117 12.5613C49.5898 12.5932 49.5619 12.6193 49.53 12.6376C49.498 12.656 49.4629 12.6661 49.4271 12.6676H47.6209C47.4725 12.6676 47.416 12.5364 47.3736 12.3894C47.218 11.8531 46.6985 11.4678 45.631 11.4678C44.6519 11.4678 44.1606 11.9763 44.1606 12.6596C44.1606 13.2118 44.1288 13.7878 45.5922 14.1017C47.7482 14.5506 50.0245 15.4007 50.0245 18.2371L50.0173 18.2451ZM30.9627 15.0829H32.6946C33.6879 15.0829 34.0766 14.8882 34.0766 13.3389C34.0766 11.7896 33.6914 11.6029 32.6946 11.6029H30.9627V15.0829ZM36.4907 21.9117H34.4513C34.3891 21.917 34.3271 21.8988 34.2753 21.8599C34.2233 21.8211 34.1845 21.7638 34.165 21.6972L32.5956 17.7246H30.9592V21.6495C30.9613 21.6866 30.9562 21.7238 30.9446 21.7586C30.9329 21.7934 30.9147 21.825 30.8913 21.8513C30.8679 21.8777 30.8398 21.898 30.8089 21.9112C30.7779 21.9243 30.7448 21.9299 30.7117 21.9276H28.5345C28.5012 21.9299 28.4677 21.9242 28.4365 21.9112C28.4052 21.8981 28.3766 21.8779 28.3527 21.8516C28.3288 21.8255 28.3099 21.794 28.2974 21.7592C28.2849 21.7244 28.2789 21.687 28.28 21.6495V9.25508C28.2789 9.21763 28.2849 9.18026 28.2974 9.14546C28.3099 9.11065 28.3288 9.07915 28.3527 9.05303C28.3766 9.02682 28.4052 9.00657 28.4365 8.9935C28.4677 8.98044 28.5012 8.97482 28.5345 8.97705H32.677C35.7838 8.97705 36.5967 10.566 36.5967 13.3469C36.5967 15.2855 36.2008 16.6362 34.9284 17.2797L36.6639 21.5821C36.7417 21.7806 36.6639 21.9117 36.4765 21.9117H36.4907ZM22.8369 19.5639V21.6336C22.8389 21.6708 22.8339 21.708 22.8222 21.7428C22.8105 21.7776 22.7924 21.8092 22.7689 21.8354C22.7456 21.8617 22.7174 21.8822 22.6865 21.8953C22.6556 21.9084 22.6224 21.9141 22.5894 21.9117H15.3825C15.3494 21.9141 15.3164 21.9084 15.2854 21.8953C15.2545 21.8822 15.2263 21.8617 15.203 21.8354C15.1796 21.8092 15.1614 21.7776 15.1497 21.7428C15.138 21.708 15.133 21.6708 15.1351 21.6336V9.25508C15.133 9.21796 15.138 9.18076 15.1497 9.14604C15.1614 9.11123 15.1796 9.07965 15.203 9.05328C15.2263 9.02699 15.2545 9.00657 15.2854 8.99342C15.3164 8.98028 15.3494 8.97474 15.3825 8.97705H22.5752C22.6083 8.97474 22.6414 8.98028 22.6724 8.99342C22.7033 9.00657 22.7314 9.02699 22.7549 9.05328C22.7782 9.07965 22.7964 9.11123 22.8081 9.14604C22.8198 9.18076 22.8248 9.21796 22.8227 9.25508V11.3288C22.8248 11.3659 22.8198 11.4031 22.8081 11.4379C22.7964 11.4727 22.7782 11.5043 22.7549 11.5306C22.7314 11.5569 22.7033 11.5773 22.6724 11.5904C22.6414 11.6036 22.6083 11.6092 22.5752 11.6069H17.7895V14.1096H22.1723C22.2054 14.1073 22.2385 14.1128 22.2694 14.126C22.3003 14.1392 22.3285 14.1595 22.3519 14.1858C22.3753 14.2122 22.3935 14.2438 22.4051 14.2786C22.4168 14.3134 22.4218 14.3505 22.4198 14.3876V16.4574C22.4218 16.4945 22.4168 16.5317 22.4051 16.5665C22.3935 16.6013 22.3753 16.6329 22.3519 16.6591C22.3285 16.6855 22.3003 16.7059 22.2694 16.7191C22.2385 16.7322 22.2054 16.7378 22.1723 16.7355H17.7895V19.3137H22.5894C22.622 19.3101 22.655 19.3146 22.686 19.3268C22.717 19.3391 22.7452 19.3587 22.7688 19.3844C22.7923 19.4101 22.8105 19.4412 22.8223 19.4756C22.8341 19.5101 22.839 19.547 22.8369 19.5838V19.5639ZM7.71611 8.97705H9.92522C10.1055 8.97705 10.1549 9.10809 10.1232 9.29088L7.47576 21.6853C7.45949 21.7531 7.42271 21.8124 7.37175 21.853C7.32079 21.8936 7.25883 21.913 7.19653 21.9078H3.89175C3.82945 21.913 3.7675 21.8936 3.71653 21.853C3.66557 21.8124 3.62879 21.7531 3.61252 21.6853L0.965159 9.29088C0.922745 9.10809 0.982832 8.97705 1.16309 8.97705H3.36511C3.42806 8.96755 3.49188 8.98516 3.5437 9.02649C3.59552 9.06774 3.63148 9.12958 3.64433 9.19952L5.4116 18.8052H5.65901L7.42628 9.19952C7.43913 9.12958 7.47509 9.06774 7.52691 9.02649C7.57873 8.98516 7.64255 8.96755 7.7055 8.97705" fill="#024430"/>
</g>
</svg>
