<svg width="90" height="22" viewBox="0 0 90 22" fill="none" xmlns="http://www.w3.org/2000/svg">
<g opacity="0.8">
<path d="M8.90999 0.950416V1.57725C8.17506 1.65813 7.67847 1.77946 7.38052 1.921C7.08257 2.06254 6.92367 2.38608 6.92367 2.87136C6.92367 3.09379 6.9634 3.31621 7.02299 3.51842C7.08257 3.72062 7.18189 4.02393 7.34079 4.42834L11.7703 15.2665L15.5245 5.68201C15.7032 5.21694 15.8622 4.71143 16.021 4.20591C16.1799 3.68018 16.2594 3.29599 16.2594 3.03313C16.2594 2.48717 16.0012 2.08276 15.5046 1.84012C15.1868 1.69857 14.7696 1.61769 14.2333 1.57725V0.950416H20.093V1.57725C19.4176 1.63791 18.9211 1.86034 18.6232 2.28497C18.3252 2.68938 17.8882 3.61952 17.3121 5.09561L11.2737 20.4632C11.1546 20.726 11.0751 20.9081 10.9956 21.0092C10.9162 21.1103 10.8367 21.1709 10.7176 21.1709C10.5785 21.1709 10.4594 21.09 10.36 20.9282C10.2607 20.7665 10.1614 20.5643 10.0422 20.3216L3.62637 4.67099C3.10992 3.39709 2.55374 2.54783 1.97772 2.08276C1.62018 1.8199 1.12359 1.65813 0.448242 1.57725V0.950416H8.90999ZM27.8198 0.889756V14.5386C27.8198 15.5092 27.9588 16.2776 28.2171 16.8639C28.7335 17.9356 29.7069 18.4816 31.0973 18.4816C32.0507 18.4816 32.9843 18.1581 33.9178 17.5312C34.4343 17.1875 34.9706 16.682 35.5069 16.0551V4.36768C35.5069 3.25556 35.2884 2.54783 34.8713 2.20409C34.4542 1.86034 33.6199 1.65813 32.3685 1.57725V0.869535H39.0625V16.0551C39.0625 16.9853 39.2213 17.6323 39.559 17.9963C39.8967 18.3603 40.5919 18.5017 41.6447 18.4614V19.0882C40.8899 19.2904 40.3337 19.4521 39.9762 19.5532C39.6187 19.6543 39.0227 19.8566 38.1884 20.1194C37.8309 20.2408 37.0562 20.5441 35.8446 21.0293C35.7651 21.0293 35.7453 20.9889 35.7254 20.9282C35.7056 20.8676 35.7056 20.7867 35.7056 20.6856V17.1875C34.7521 18.34 33.8781 19.1893 33.0836 19.7555C31.8918 20.6047 30.6206 21.0293 29.2897 21.0293C28.0781 21.0293 26.926 20.5845 25.8335 19.715C24.7411 18.8455 24.1849 17.3897 24.1849 15.3474V4.28679C24.1849 3.15445 23.9664 2.38608 23.4897 2.00188C23.1917 1.75924 22.5561 1.59747 21.5827 1.49637V0.869535H27.8198V0.889756ZM46.3523 3.7004C48.0804 1.77946 50.305 0.829094 53.0263 0.829094C55.7277 0.829094 57.9723 1.73902 59.76 3.55886C61.5279 5.3787 62.4216 7.78494 62.4216 10.818C62.4216 13.5882 61.5675 16.0147 59.8394 18.057C58.1113 20.0992 55.8867 21.1304 53.1455 21.1304C50.5235 21.1304 48.2989 20.1397 46.4714 18.1783C44.644 16.2169 43.7501 13.7298 43.7501 10.7573C43.7501 7.96692 44.6043 5.62135 46.3523 3.7004ZM49.6098 3.11401C48.2392 4.3879 47.544 6.59193 47.544 9.70588C47.544 12.193 48.1002 14.5183 49.2126 16.6617C50.3249 18.8253 51.8544 19.897 53.8209 19.897C55.3702 19.897 56.5421 19.1691 57.3764 17.7334C58.2107 16.2977 58.6277 14.3971 58.6277 12.0717C58.6277 9.64522 58.0915 7.38053 57.0387 5.23716C55.9859 3.09379 54.4366 2.0221 52.4305 2.0221C51.3379 2.0221 50.4044 2.38608 49.6098 3.11401ZM64.4874 20.3216C65.7785 20.2205 66.6327 19.9778 67.0498 19.6139C67.4669 19.2702 67.6854 18.522 67.6854 17.3694V7.68383C67.6854 6.28862 67.5464 5.2776 67.2881 4.67099C67.0299 4.06438 66.5532 3.76106 65.858 3.76106C65.719 3.76106 65.5203 3.78128 65.3018 3.82173C65.0634 3.86217 64.8251 3.90261 64.5669 3.96327V3.27577C65.3614 2.99269 66.1957 2.7096 67.0299 2.42652C67.8841 2.12321 68.4601 1.921 68.7978 1.77946C69.493 1.51659 70.2279 1.21328 70.9828 0.869535C71.082 0.869535 71.1416 0.909976 71.1615 0.990858C71.1813 1.07174 71.2012 1.2335 71.2012 1.47615V5.01473C72.0752 3.74084 72.9293 2.72982 73.7437 2.0221C74.5581 1.31439 75.4122 0.950416 76.2862 0.950416C76.9815 0.950416 77.5575 1.17284 77.9944 1.61769C78.4314 2.06254 78.6499 2.60849 78.6499 3.27577C78.6499 3.86217 78.4911 4.36768 78.1534 4.77209C77.8157 5.17649 77.3985 5.3787 76.8821 5.3787C76.3656 5.3787 75.8493 5.13605 75.3129 4.63054C74.7965 4.12504 74.3793 3.88239 74.0814 3.88239C73.6047 3.88239 73.0286 4.28679 72.3136 5.07539C71.6183 5.88421 71.2608 6.71325 71.2608 7.56251V17.147C71.2608 18.3603 71.5389 19.1893 72.1149 19.6543C72.6711 20.1194 73.6245 20.3419 74.9355 20.3216V21.0092H64.4874V20.3216ZM86.5953 0.950416C86.774 0.889755 86.7541 1.15262 86.7541 1.27394V16.5809C86.7541 18.1984 86.9528 19.2095 87.3302 19.6139C87.7275 20.0183 88.5816 20.2811 89.9521 20.4025V21.0293H79.7424V20.4025C81.2521 20.261 82.1856 19.9981 82.5829 19.6342C82.9801 19.2499 83.1589 18.2592 83.1589 16.6011V6.28862C83.1589 5.3787 83.0993 4.73165 82.9801 4.3879C82.7617 3.80151 82.3445 3.51842 81.6691 3.51842C81.5103 3.51842 81.3713 3.53864 81.2321 3.55886C81.0931 3.57908 80.676 3.7004 79.9807 3.90261V3.07357C79.9807 3.05335 82.9801 2.10299 86.5953 0.950416Z" fill="#024430"/>
</g>
</svg>
