<svg width="64" height="64" viewBox="0 0 64 64" fill="none" xmlns="http://www.w3.org/2000/svg">
<g clip-path="url(#clip0_1_16888)">
<rect x="6.66797" y="5.33333" width="24" height="42.6667" fill="#AEE6B9"/>
<path d="M37 32C37.6899 32 38.25 31.4399 38.25 30.75C38.25 30.0601 37.6899 29.5 37 29.5C36.3101 29.5 35.75 30.0601 35.75 30.75C35.75 31.4399 36.3101 32 37 32Z" fill="#024430"/>
<path d="M37 39.5C37.6899 39.5 38.25 38.9399 38.25 38.25C38.25 37.5601 37.6899 37 37 37C36.3101 37 35.75 37.5601 35.75 38.25C35.75 38.9399 36.3101 39.5 37 39.5Z" fill="#024430"/>
<path d="M11.25 24.5C11.9399 24.5 12.5 23.9399 12.5 23.25C12.5 22.5601 11.9399 22 11.25 22C10.5601 22 10 22.5601 10 23.25C10 23.9399 10.5601 24.5 11.25 24.5Z" fill="#024430"/>
<path d="M11.25 32C11.9399 32 12.5 31.4399 12.5 30.75C12.5 30.0601 11.9399 29.5 11.25 29.5C10.5601 29.5 10 30.0601 10 30.75C10 31.4399 10.5601 32 11.25 32Z" fill="#024430"/>
<path d="M11.25 39.5C11.9399 39.5 12.5 38.9399 12.5 38.25C12.5 37.5601 11.9399 37 11.25 37C10.5601 37 10 37.5601 10 38.25C10 38.9399 10.5601 39.5 11.25 39.5Z" fill="#024430"/>
<path d="M62.75 9.5H59V5.75C59 5.05957 58.4404 4.5 57.75 4.5H37C34.9575 4.5 33.1411 5.48486 32 7.00439C30.8589 5.48486 29.0425 4.5 27 4.5C25.9595 4.5 7.29834 4.5 6.25 4.5C5.55957 4.5 5 5.05957 5 5.75V9.5H1.25C0.55957 9.5 0 10.0596 0 10.75V53.25C0 53.9404 0.55957 54.5 1.25 54.5H23.9102C25.3394 54.5 26.6245 55.2944 27.2646 56.5728C28.1675 58.3784 29.9819 59.5 32 59.5C34.0181 59.5 35.8325 58.3784 36.7354 56.5732C37.3755 55.2944 38.6606 54.5 40.0898 54.5H62.75C63.4404 54.5 64 53.9404 64 53.25V10.75C64 10.0596 63.4404 9.5 62.75 9.5ZM37 7H56.5V47H37C35.5942 47 34.2954 47.4668 33.25 48.2529V10.75C33.25 8.68213 34.9321 7 37 7ZM15 7H20V13.4146L18.1934 12.21C17.9834 12.0698 17.7417 12 17.5 12C17.2583 12 17.0166 12.0698 16.8066 12.21L15 13.4146V7ZM7.5 7H12.5V15.75C12.5 16.2109 12.7539 16.6348 13.1602 16.8521C13.5664 17.0693 14.0596 17.0459 14.4434 16.79L17.5 14.7524L20.5566 16.79C20.9409 17.0464 21.4341 17.0693 21.8398 16.8521C22.2461 16.6348 22.5 16.2109 22.5 15.75V7H27C29.0679 7 30.75 8.68213 30.75 10.75V48.2534C29.7046 47.4668 28.4058 47 27 47H7.5V7ZM61.5 52H40.0898C37.708 52 35.5659 53.3237 34.4995 55.4546C34.0229 56.4077 33.0649 57 32 57C30.9351 57 29.9771 56.4077 29.5005 55.4546C28.4341 53.3237 26.292 52 23.9102 52H2.5V12H5V48.25C5 48.9404 5.55957 49.5 6.25 49.5H27C29.0679 49.5 30.75 51.1821 30.75 53.25C30.75 53.9404 31.3096 54.5 32 54.5C32.6904 54.5 33.25 53.9404 33.25 53.25C33.25 51.1821 34.9321 49.5 37 49.5H57.75C58.4404 49.5 59 48.9404 59 48.25V12H61.5V52Z" fill="#024430"/>
<path d="M37 24.5H52.75C53.4404 24.5 54 23.9404 54 23.25V15.75C54 15.0596 53.4404 14.5 52.75 14.5H37C36.3096 14.5 35.75 15.0596 35.75 15.75V23.25C35.75 23.9404 36.3096 24.5 37 24.5ZM38.25 17H51.5V22H38.25V17Z" fill="#06D6A0"/>
<path d="M16.25 24.5H27C27.6904 24.5 28.25 23.9404 28.25 23.25C28.25 22.5596 27.6904 22 27 22H16.25C15.5596 22 15 22.5596 15 23.25C15 23.9404 15.5596 24.5 16.25 24.5Z" fill="#024430"/>
<path d="M16.25 32H27C27.6904 32 28.25 31.4404 28.25 30.75C28.25 30.0596 27.6904 29.5 27 29.5H16.25C15.5596 29.5 15 30.0596 15 30.75C15 31.4404 15.5596 32 16.25 32Z" fill="#024430"/>
<path d="M16.25 39.5H27C27.6904 39.5 28.25 38.9404 28.25 38.25C28.25 37.5596 27.6904 37 27 37H16.25C15.5596 37 15 37.5596 15 38.25C15 38.9404 15.5596 39.5 16.25 39.5Z" fill="#024430"/>
<path d="M52.75 29.5H42C41.3096 29.5 40.75 30.0596 40.75 30.75C40.75 31.4404 41.3096 32 42 32H52.75C53.4404 32 54 31.4404 54 30.75C54 30.0596 53.4404 29.5 52.75 29.5Z" fill="#024430"/>
<path d="M52.75 37H42C41.3096 37 40.75 37.5596 40.75 38.25C40.75 38.9404 41.3096 39.5 42 39.5H52.75C53.4404 39.5 54 38.9404 54 38.25C54 37.5596 53.4404 37 52.75 37Z" fill="#024430"/>
</g>
<defs>
<clipPath id="clip0_1_16888">
<rect width="64" height="64" fill="white"/>
</clipPath>
</defs>
</svg>
