<svg width="64" height="60" viewBox="0 0 64 60" fill="none" xmlns="http://www.w3.org/2000/svg">
<path fill-rule="evenodd" clip-rule="evenodd" d="M12.5644 19.3604L26.7339 21.0716L44.1898 19.3604C45.5422 19.3604 46.6414 18.2573 46.6414 16.9088C46.6414 15.5564 45.5422 14.4533 44.1898 14.4533H42.6486L23.7723 10.4754L42.6486 6.50138H44.1898C45.5422 6.50138 46.6414 5.39825 46.6414 4.04587C46.6414 2.6935 45.5422 1.59425 44.1898 1.59425H12.5644C7.66881 1.59425 3.67969 5.58337 3.67969 10.4754C3.67969 12.8364 4.61656 15.0841 6.28619 16.7537C7.95581 18.4234 10.2034 19.3604 12.5644 19.3604V19.3604Z" fill="#FFE07D"/>
<path fill-rule="evenodd" clip-rule="evenodd" d="M12.5637 14.4532H42.6478C41.3861 11.7862 41.3937 9.13437 42.6478 6.50137H12.5637C10.3766 6.50137 8.58594 8.292 8.58594 10.4754C8.58594 11.5369 9.00519 12.5341 9.75319 13.2859C10.5049 14.0339 11.5022 14.4532 12.5637 14.4532V14.4532Z" fill="#F9F7F8"/>
<path fill-rule="evenodd" clip-rule="evenodd" d="M42.6478 6.50137H12.5637C10.3766 6.50137 8.58594 8.292 8.58594 10.4754C8.58594 11.0836 8.72569 11.6691 8.98256 12.2017C9.62856 10.872 10.9922 9.9465 12.5637 9.9465L41.7186 9.95025C41.7903 8.79437 42.1038 7.646 42.6478 6.50137Z" fill="#FFE7BB"/>
<path fill-rule="evenodd" clip-rule="evenodd" d="M44.1917 1.59425H32.5117C33.2143 3.09775 33.7281 4.7485 34.0227 6.50138H42.6506H44.1918C45.5442 6.50138 46.6435 5.39825 46.6435 4.04587C46.6435 2.6935 45.5441 1.59425 44.1917 1.59425V1.59425Z" fill="#FFD166"/>
<path fill-rule="evenodd" clip-rule="evenodd" d="M28.4489 41.2781L49.9166 38.8831C52.4134 38.8831 54.4572 36.8394 54.4572 34.3424V29.1217V23.9011C54.4572 21.4041 52.4136 19.3604 49.9166 19.3604H44.1898H12.5646H6.07469C4.75631 19.3604 3.67969 20.437 3.67969 21.7554C3.67969 23.0737 4.75631 24.1504 6.07469 24.1504H8.32981L49.6672 29.1217L8.32994 34.093H6.07469C4.75631 34.093 3.67969 35.1696 3.67969 36.488C3.67969 37.8064 4.75631 38.883 6.07469 38.883L28.4489 41.2781Z" fill="#A7E9A6"/>
<path fill-rule="evenodd" clip-rule="evenodd" d="M8.33203 34.093H48.4605C49.1254 34.093 49.6693 33.549 49.6693 32.8841V25.3591C49.6693 24.6942 49.1253 24.1502 48.4605 24.1502H8.33203C9.12153 25.8049 9.51816 27.4595 9.51441 29.1216C9.51441 30.7725 9.12153 32.4309 8.33203 34.093V34.093Z" fill="#F9F7F8"/>
<path fill-rule="evenodd" clip-rule="evenodd" d="M48.4605 24.1504H8.33203C8.72116 24.9626 9.01203 25.7747 9.20841 26.5869H45.6577C46.3188 26.5869 46.8627 27.1309 46.8627 27.7957V34.093H48.4605C49.1254 34.093 49.6693 33.549 49.6693 32.8841V25.3591C49.6693 24.6944 49.1254 24.1504 48.4605 24.1504Z" fill="#FFE7BB"/>
<path fill-rule="evenodd" clip-rule="evenodd" d="M42.6472 14.4533H33.7587C33.3394 16.2288 32.6821 17.8795 31.8359 19.3604H44.1884C45.5408 19.3604 46.6401 18.2573 46.6401 16.9088C46.6401 15.5564 45.5408 14.4533 44.1884 14.4533H42.6472Z" fill="#FFD166"/>
<path fill-rule="evenodd" clip-rule="evenodd" d="M49.9175 19.3604H44.1908H40.5342C41.3199 20.8147 41.9243 22.4277 42.3095 24.1504H48.4593C49.1242 24.1504 49.668 24.6944 49.668 25.3592V32.8842C49.668 33.5491 49.124 34.0931 48.4593 34.0931H46.8614H41.9998C41.4898 35.8384 40.7494 37.4552 39.8164 38.8831H49.9175C52.4144 38.8831 54.4582 36.8394 54.4582 34.3424V29.1217V23.9011C54.4582 21.404 52.4145 19.3604 49.9175 19.3604V19.3604Z" fill="#7FDBAE"/>
<path fill-rule="evenodd" clip-rule="evenodd" d="M6.07487 38.8831H5.47425C2.97737 38.8831 0.9375 40.9269 0.9375 43.4239V48.6445V53.8651C0.9375 56.3621 2.98112 58.4059 5.47425 58.4059H60.6675C61.6647 58.4059 62.526 57.7864 62.8849 56.9137C62.9983 56.6342 63.0624 56.3283 63.0624 56.0109C63.0624 55.6898 62.9981 55.3838 62.8849 55.1043C62.526 54.2316 61.6647 53.6159 60.6675 53.6159H58.4124L5.72738 49.0827L58.4124 43.6732H60.6675C61.6647 43.6732 62.526 43.0575 62.8849 42.1849C62.9983 41.9054 63.0624 41.5994 63.0624 41.2783C63.0624 40.9609 62.9981 40.655 62.8849 40.3754C62.526 39.5027 61.6647 38.8833 60.6675 38.8833C42.4712 38.8831 24.2712 38.8831 6.07487 38.8831V38.8831Z" fill="#FFE07D"/>
<path fill-rule="evenodd" clip-rule="evenodd" d="M58.4105 53.6158H48.5437C47.9015 55.395 47.01 57.0119 45.9258 58.4058H60.6657C61.6629 58.4058 62.5242 57.7863 62.883 56.9136C62.9964 56.6341 63.0605 56.3281 63.0605 56.0108C63.0605 55.6896 62.9963 55.3836 62.883 55.1041C62.5242 54.2315 61.6629 53.6158 60.6657 53.6158H58.4105Z" fill="#FFD166"/>
<path fill-rule="evenodd" clip-rule="evenodd" d="M60.6663 38.8831H49.9156H48.0117C48.6766 40.3601 49.1676 41.9694 49.4396 43.6731H58.4112H60.6663C61.6636 43.6731 62.5248 43.0574 62.8837 42.1847C62.9971 41.9052 63.0612 41.5993 63.0612 41.2781C63.0612 40.9608 62.997 40.6549 62.8837 40.3753C62.525 39.5026 61.6637 38.8831 60.6663 38.8831Z" fill="#FFD166"/>
<path fill-rule="evenodd" clip-rule="evenodd" d="M57.2292 48.6444C57.2254 46.9823 57.6221 45.3239 58.4116 43.673C30.6959 43.673 24.6783 43.673 6.93531 43.673C6.27044 43.673 5.72656 44.217 5.72656 44.8819V52.4069C5.72656 53.0718 6.27056 53.6158 6.93531 53.6158H58.4116C57.6221 51.9536 57.2292 50.2953 57.2292 48.6444V48.6444Z" fill="#F9F7F8"/>
<path fill-rule="evenodd" clip-rule="evenodd" d="M17.1609 43.6731H6.93531C6.27044 43.6731 5.72656 44.2171 5.72656 44.882V48.6445C5.72656 47.9796 6.27056 47.4356 6.93531 47.4356H17.1611H18.4568H23.7264H25.0183H57.2972C57.4407 46.1815 57.8147 44.9273 58.4116 43.6731H25.0219H17.1609Z" fill="#FFE7BB"/>
<path fill-rule="evenodd" clip-rule="evenodd" d="M17.162 47.7226C17.1166 48.2969 17.3395 48.4819 17.8231 48.04L21.0906 44.9235L24.3581 48.04C24.8416 48.482 25.0683 48.2969 25.0193 47.7226C25.023 41.5235 25.023 35.3207 25.0268 29.1216H17.1583C17.1583 35.3207 17.162 41.5236 17.162 47.7226V47.7226Z" fill="#EB5468"/>
<path fill-rule="evenodd" clip-rule="evenodd" d="M25.0254 29.1217H22.3397C22.3359 34.7844 22.3359 40.447 22.3359 46.1097L23.7261 47.4357L24.3569 48.0401C24.8404 48.4821 25.0671 48.297 25.0181 47.7228V47.4356C25.0216 41.331 25.0216 35.2264 25.0254 29.1217V29.1217Z" fill="#E5384F"/>
<path d="M60.6676 52.6782H59.0201C57.8771 49.9625 57.8766 47.3126 59.0189 44.6105H60.6676C62.5051 44.6105 64 43.1156 64 41.278C64 39.4405 62.5051 37.9455 60.6676 37.9455H54.0379C54.8818 36.9815 55.3947 35.7211 55.3947 34.3423V23.901C55.3947 20.8802 52.9374 18.4227 49.9168 18.4227H47.2209C47.4496 17.9667 47.5791 17.4526 47.5791 16.9086C47.5791 15.0377 46.0589 13.5156 44.1901 13.5156H43.2627C42.4351 11.4697 42.4346 9.4715 43.2614 7.43875H44.1901C46.0589 7.43875 47.5791 5.91662 47.5791 4.04575C47.5791 2.177 46.0589 0.656624 44.1901 0.656624H12.5647C7.14875 0.656624 2.7425 5.06125 2.7425 10.4752C2.7425 13.0935 3.76575 15.5586 5.6235 17.4165C5.99287 17.7859 6.38713 18.1207 6.80088 18.4226H6.07487C4.23737 18.4226 2.7425 19.9175 2.7425 21.7551C2.7425 23.5927 4.23737 25.0876 6.07487 25.0876H7.72363C8.86588 27.7895 8.8655 30.4395 7.72237 33.1553H6.07487C4.23737 33.1553 2.7425 34.6501 2.7425 36.4878C2.7425 37.1908 2.96188 37.8431 3.33488 38.3812C1.37638 39.2169 0 41.1624 0 43.4238V53.8651C0 56.8859 2.45575 59.3433 5.47425 59.3433H60.6675C62.505 59.3433 63.9999 57.8484 63.9999 56.0107C64 54.1732 62.5051 52.6782 60.6676 52.6782V52.6782ZM60.6676 39.8205C61.4713 39.8205 62.125 40.4744 62.125 41.278C62.125 42.0816 61.4713 42.7355 60.6676 42.7355H43.748C43.2301 42.7355 42.8105 43.1553 42.8105 43.673C42.8105 44.1908 43.2301 44.6105 43.748 44.6105H57.0078C56.6414 45.6395 56.4174 46.6725 56.3327 47.7069C56.3327 47.7069 55.9583 49.5625 57.0098 52.6782H6.93625C6.78925 52.6782 6.665 52.554 6.665 52.4069V44.8819C6.665 44.7349 6.78925 44.6106 6.93625 44.6106H16.2239L16.2245 47.6896C16.1654 48.6114 16.6155 48.9746 16.8919 49.1096C17.172 49.2466 17.7475 49.3792 18.4556 48.732C18.4605 48.7275 18.4654 48.723 18.4701 48.7185L21.0906 46.2191L23.7111 48.7185C23.7159 48.7231 23.7207 48.7276 23.7256 48.732C24.1401 49.1109 24.5091 49.2228 24.8005 49.2228C25.0086 49.2228 25.1771 49.1656 25.2941 49.108C25.5709 48.9718 26.0204 48.6068 25.9568 47.6871L25.958 44.6106H39.132C39.6499 44.6106 40.0695 44.1909 40.0695 43.6731C40.0695 43.1554 39.6499 42.7356 39.132 42.7356H25.9586L25.9599 39.8206H60.6676V39.8205ZM10.4102 28.1842C10.3257 27.1499 10.0974 26.117 9.73125 25.0879H48.4588C48.6059 25.0879 48.7301 25.2121 48.7301 25.3591V32.8841C48.7301 33.0311 48.6059 33.1554 48.4588 33.1554H25.9626L25.9639 30.059H32.525C33.0429 30.059 33.4625 29.6392 33.4625 29.1215C33.4625 28.6037 33.0429 28.184 32.525 28.184H10.4102V28.1842ZM16.2215 33.1555H9.72913C10.095 32.125 10.3238 31.0921 10.4093 30.0591H16.2209L16.2215 33.1555ZM24.0889 30.0592L24.0821 46.4813L21.7375 44.245C21.3754 43.8995 20.8056 43.8995 20.4434 44.245L18.0991 46.481L18.0958 30.0591H24.0889V30.0592ZM4.6175 10.4754C4.6175 6.09525 8.18262 2.53175 12.5647 2.53175H44.1901C45.025 2.53175 45.7041 3.211 45.7041 4.04587C45.7041 4.88287 45.0249 5.56387 44.1901 5.56387H26.9079C26.3901 5.56387 25.9704 5.98362 25.9704 6.50137C25.9704 7.01912 26.3901 7.43887 26.9079 7.43887H41.2637C40.602 9.45562 40.6029 11.4902 41.2663 13.5157H12.5647C11.7585 13.5157 10.9951 13.1981 10.4189 12.6247C9.84212 12.045 9.5245 11.2817 9.5245 10.4754C9.5245 8.801 10.8884 7.43887 12.5647 7.43887H22.2919C22.8096 7.43887 23.2294 7.01912 23.2294 6.50137C23.2294 5.98362 22.8096 5.56387 22.2919 5.56387H12.5647C9.8545 5.56387 7.6495 7.76712 7.6495 10.4754C7.6495 11.7807 8.161 13.0137 9.093 13.9505C10.0265 14.8792 11.2594 15.3907 12.5647 15.3907H44.1901C45.025 15.3907 45.7041 16.0717 45.7041 16.9087C45.7041 17.7436 45.0249 18.4229 44.1901 18.4229H12.5647C10.4474 18.4229 8.45313 17.5947 6.94938 16.0909C5.44563 14.5871 4.6175 12.5929 4.6175 10.4754V10.4754ZM6.07487 23.2129C5.27125 23.2129 4.6175 22.5591 4.6175 21.7554C4.6175 20.9517 5.27125 20.2979 6.07487 20.2979H49.9168C51.9035 20.2979 53.5197 21.9142 53.5197 23.9011V34.3424C53.5197 36.3293 51.9034 37.9456 49.9168 37.9456H25.9606L25.9619 35.0306H48.4586C49.6421 35.0306 50.605 34.0678 50.605 32.8844V25.3594C50.605 24.1759 49.6421 23.2131 48.4586 23.2131H6.07487V23.2129ZM6.07487 35.0305H16.2219L16.2225 37.9455H6.075C5.27137 37.9455 4.61763 37.2916 4.61763 36.488C4.6175 35.6844 5.27125 35.0305 6.07487 35.0305V35.0305ZM60.6676 57.4683H5.47425C3.48962 57.4683 1.875 55.8519 1.875 53.8651V43.4238C1.875 41.4369 3.48962 39.8205 5.47425 39.8205H16.2227L16.2234 42.7355H6.93625C5.75275 42.7355 4.79 43.6984 4.79 44.8817V52.4067C4.79 53.5902 5.75288 54.5531 6.93625 54.5531H60.6676C61.4713 54.5531 62.125 55.207 62.125 56.0106C62.125 56.8142 61.4713 57.4683 60.6676 57.4683Z" fill="#024430"/>
</svg>
