<svg width="64" height="64" viewBox="0 0 64 64" fill="none" xmlns="http://www.w3.org/2000/svg">
<g clip-path="url(#clip0_1_16910)">
<path d="M46.0274 28.9941L49.2986 30.0845C50.9352 30.6301 52.0391 32.1616 52.0391 33.8867V40.0157H36.0078V33.8867C36.0078 32.1616 37.1117 30.6301 38.7483 30.0845L42.0196 28.9941" fill="#FFE477"/>
<path d="M41.2532 30.0845L44.5244 28.9941H42.0196L38.7483 30.0845C37.1117 30.6301 36.0078 32.1616 36.0078 33.8867V40.0157H38.5127V33.8867C38.5127 32.1617 39.6166 30.6301 41.2532 30.0845V30.0845Z" fill="#FCB352"/>
<path d="M44.0235 29.9961C46.2369 29.9961 48.0313 27.7531 48.0313 24.9863C48.0313 22.2195 46.2369 19.9765 44.0235 19.9765C41.81 19.9765 40.0156 22.2195 40.0156 24.9863C40.0156 27.7531 41.81 29.9961 44.0235 29.9961Z" fill="#FFCEB7"/>
<path d="M42.5205 24.9863C42.5205 22.7665 43.676 20.8849 45.2759 20.2274C44.8818 20.0653 44.4611 19.9765 44.0235 19.9765C41.81 19.9765 40.0156 22.2195 40.0156 24.9863C40.0156 27.7531 41.81 29.9961 44.0235 29.9961C44.4611 29.9961 44.8818 29.9073 45.2759 29.7452C43.676 29.0877 42.5205 27.2061 42.5205 24.9863Z" fill="#FFAA81"/>
<path d="M21.9805 28.9941L25.2518 30.0845C26.8883 30.6301 27.9922 32.1616 27.9922 33.8867V40.0157H11.9609V33.8867C11.9609 32.1616 13.0648 30.6301 14.7014 30.0845L17.9727 28.9941" fill="#54D9F8"/>
<path d="M17.2063 30.0845L20.4776 28.9941H17.9727L14.7014 30.0845C13.0648 30.6301 11.9609 32.1616 11.9609 33.8867V40.0157H14.4658V33.8867C14.4658 32.1617 15.5697 30.6301 17.2063 30.0845V30.0845Z" fill="#00C3F2"/>
<path d="M19.9766 29.9961C22.19 29.9961 23.9844 27.7531 23.9844 24.9863C23.9844 22.2195 22.19 19.9765 19.9766 19.9765C17.7631 19.9765 15.9688 22.2195 15.9688 24.9863C15.9688 27.7531 17.7631 29.9961 19.9766 29.9961Z" fill="#FFCEB7"/>
<path d="M18.4736 24.9863C18.4736 22.7665 19.6291 20.8849 21.229 20.2274C20.8349 20.0653 20.4142 19.9765 19.9766 19.9765C17.7631 19.9765 15.9688 22.2195 15.9688 24.9863C15.9688 27.7531 17.7631 29.9961 19.9766 29.9961C20.4142 29.9961 20.8349 29.9072 21.229 29.7452C19.6291 29.0877 18.4736 27.2061 18.4736 24.9863Z" fill="#FFAA81"/>
<path d="M34.0039 33.002L37.2752 34.0923C38.9118 34.6379 40.0157 36.1694 40.0157 37.8945V44.0235H23.9844V37.8945C23.9844 36.1694 25.0883 34.6379 26.7249 34.0923L29.9961 33.002" fill="#EA5172"/>
<path d="M29.2297 34.0923L32.501 33.002H29.9961L26.7249 34.0923C25.0883 34.6379 23.9844 36.1694 23.9844 37.8945V44.0235H26.4893V37.8945C26.4893 36.1695 27.5932 34.6379 29.2297 34.0923Z" fill="#EF476F"/>
<path d="M32 34.0039C34.2135 34.0039 36.0078 31.761 36.0078 28.9941C36.0078 26.2273 34.2135 23.9843 32 23.9843C29.7866 23.9843 27.9922 26.2273 27.9922 28.9941C27.9922 31.761 29.7866 34.0039 32 34.0039Z" fill="#FFCEB7"/>
<path d="M30.4971 28.9941C30.4971 26.7743 31.6526 24.8927 33.2525 24.2352C32.8583 24.0731 32.4376 23.9843 32 23.9843C29.7866 23.9843 27.9922 26.2274 27.9922 28.9941C27.9922 31.7609 29.7866 34.0039 32 34.0039C32.4376 34.0039 32.8583 33.9151 33.2525 33.7531C31.6526 33.0955 30.4971 31.214 30.4971 28.9941Z" fill="#FFAA81"/>
<path d="M53.9598 10.0384L51.1268 12.8726C46.2322 7.97432 39.469 4.94716 31.9982 4.94716C17.0577 4.94716 4.94533 17.0596 4.94533 32C4.94533 36.3147 5.95605 40.3939 7.75331 44.0135H3.34721C1.79543 40.3175 0.9375 36.2596 0.9375 32C0.9375 14.8452 14.8434 0.939335 31.9982 0.939335C40.5749 0.939335 48.3388 4.41487 53.9598 10.0384Z" fill="#AEE6B9"/>
<path d="M63.0575 32C63.0575 49.1548 49.1516 63.0607 31.9968 63.0607C23.42 63.0607 15.6561 59.5851 10.0352 53.9616L12.8694 51.1286C17.764 56.0257 24.5272 59.0528 31.9968 59.0528C46.9372 59.0528 59.0496 46.9404 59.0496 32C59.0496 27.6816 58.0377 23.5986 56.2366 19.9765H60.644C62.1983 23.675 63.0575 27.7367 63.0575 32Z" fill="#AEE6B9"/>
<path d="M57.0489 15.9687V6.95108L48.0312 15.9687H57.0489Z" fill="#AEE6B9"/>
<path d="M6.94922 48.0313V57.0489L15.9668 48.0313H6.94922Z" fill="#AEE6B9"/>
<path d="M40.9569 44.9628V40.955H52.9804V33.8867C52.9804 31.7539 51.621 29.8678 49.5977 29.1934L47.9275 28.6367C48.5814 27.6281 48.9726 26.3615 48.9726 24.9863C48.9726 21.706 46.7532 19.0372 44.0254 19.0372C41.2976 19.0372 39.0782 21.706 39.0782 24.9863C39.0782 26.3615 39.4694 27.6282 40.1234 28.6369L38.4535 29.1938C37.8616 29.3908 37.3271 29.6921 36.8662 30.0725C36.9196 29.7226 36.9491 29.3625 36.9491 28.9941C36.9491 25.7138 34.7297 23.045 32.0019 23.045C29.2741 23.045 27.0547 25.7138 27.0547 28.9941C27.0547 29.3625 27.0842 29.7224 27.1377 30.0724C26.6769 29.6921 26.1425 29.3908 25.5508 29.1939L23.8804 28.6369C24.5345 27.6282 24.9256 26.3615 24.9256 24.9863C24.9256 21.706 22.7063 19.0372 19.9784 19.0372C17.2506 19.0372 15.0313 21.706 15.0313 24.9863C15.0313 26.3615 15.4224 27.6281 16.0763 28.6367L14.4063 29.1934C12.3828 29.8678 11.0234 31.7539 11.0234 33.8867V40.955H23.0469V44.9628H40.9569ZM39.0782 43.0841H24.9256V37.8945C24.9256 36.5717 25.7687 35.4018 27.0238 34.9835L29.534 34.1467C30.261 34.6523 31.1035 34.9432 32.0019 34.9432C32.9004 34.9432 33.7428 34.6523 34.4699 34.1468L36.9801 34.9836C38.2351 35.4019 39.0782 36.5717 39.0782 37.8946V43.0841ZM44.0254 20.9159C45.7174 20.9159 47.0939 22.7419 47.0939 24.9863C47.0939 27.2307 45.7174 29.0568 44.0254 29.0568C42.3333 29.0568 40.9569 27.2307 40.9569 24.9863C40.9569 22.7419 42.3333 20.9159 44.0254 20.9159ZM39.0472 30.9761L41.5575 30.139C42.2845 30.6445 43.127 30.9354 44.0254 30.9354C44.9239 30.9354 45.7663 30.6445 46.4933 30.139L49.0036 30.9758C50.2586 31.3941 51.1017 32.5639 51.1017 33.8868V39.0763H40.9569V37.8945C40.9569 35.7617 39.5975 33.8757 37.5742 33.2012L37.0716 33.0336C37.3466 32.081 38.0711 31.3009 39.0472 30.9761ZM32.0019 24.9237C33.694 24.9237 35.0704 26.7497 35.0704 28.9941C35.0704 31.2385 33.694 33.0646 32.0019 33.0646C30.3099 33.0646 28.9334 31.2385 28.9334 28.9941C28.9334 26.7497 30.3099 24.9237 32.0019 24.9237ZM19.9784 20.9159C21.6705 20.9159 23.0469 22.7419 23.0469 24.9863C23.0469 27.2307 21.6705 29.0568 19.9784 29.0568C18.2864 29.0568 16.9099 27.2307 16.9099 24.9863C16.9099 22.7419 18.2864 20.9159 19.9784 20.9159ZM12.9021 39.0763V33.8867C12.9021 32.5639 13.7453 31.3939 15.0003 30.9756L17.5105 30.1389C18.2375 30.6445 19.08 30.9354 19.9784 30.9354C20.8768 30.9354 21.7193 30.6445 22.4464 30.139L24.9572 30.9763C25.9328 31.301 26.6573 32.0812 26.9323 33.0338L26.4298 33.2013C24.4065 33.8758 23.0469 35.7618 23.0469 37.8946V39.0763H12.9021Z" fill="#024430"/>
<path d="M8.59654 43.5956C6.79828 39.9741 5.8865 36.0728 5.8865 32C5.8865 17.601 17.601 5.8865 32 5.8865C38.6629 5.8865 44.9418 8.36559 49.7867 12.8848L45.7636 16.908H57.9883V4.6834L53.9513 8.72041C47.9917 3.09029 40.2342 0 32 0C23.4523 0 15.4164 3.3285 9.37243 9.37243C3.3285 15.4164 0 23.4523 0 32C0 36.2889 0.835382 40.4531 2.48297 44.377L2.7247 44.9528H9.27036L8.59654 43.5956ZM56.1096 15.0294H50.299L56.1096 9.21876V15.0294ZM3.98027 43.0741C2.58555 39.551 1.87867 35.8286 1.87867 32C1.87867 15.3911 15.3911 1.87867 32 1.87867C39.7324 1.87867 47.0178 4.77395 52.622 10.0495L51.116 11.5556C45.9154 6.68205 39.1649 4.00783 32 4.00783C24.5233 4.00783 17.4939 6.91964 12.2067 12.2067C6.91952 17.4938 4.00783 24.5233 4.00783 32C4.00783 35.8612 4.7727 39.5794 6.2839 43.0741H3.98027Z" fill="#024430"/>
<path d="M61.5132 19.6127L61.2714 19.0372H54.7237L55.3988 20.3947C57.2001 24.0175 58.1135 27.9222 58.1135 32C58.1135 46.399 46.399 58.1135 32 58.1135C25.3377 58.1135 19.0588 55.6344 14.2132 51.1151L18.2363 47.092H6.01172V59.3166L10.0487 55.2796C16.0082 60.9097 23.7658 64 32 64C40.5477 64 48.5836 60.6715 54.6275 54.6276C60.6715 48.5836 64 40.5477 64 32C64 27.7071 63.1632 23.5394 61.5132 19.6127V19.6127ZM7.89039 48.9706H13.701L7.89039 54.7812V48.9706ZM32 62.1213C24.2676 62.1213 16.9821 59.226 11.3779 53.9505L12.8841 52.4443C18.0852 57.3179 24.8359 59.9922 32 59.9922C39.4767 59.9922 46.5061 57.0804 51.7933 51.7933C57.0805 46.5062 59.9921 39.4767 59.9921 32C59.9921 28.1341 59.2258 24.4123 57.7119 20.9159H60.0161C61.4134 24.4417 62.1213 28.1675 62.1213 32C62.1213 48.6089 48.6089 62.1213 32 62.1213V62.1213Z" fill="#024430"/>
<path d="M32.9414 38.0744H34.8201V39.953H32.9414V38.0744Z" fill="white"/>
<path d="M29.1836 38.0744H31.0623V39.953H29.1836V38.0744Z" fill="white"/>
</g>
<defs>
<clipPath id="clip0_1_16910">
<rect width="64" height="64" fill="white"/>
</clipPath>
</defs>
</svg>
