<svg width="32" height="32" viewBox="0 0 32 32" fill="none" xmlns="http://www.w3.org/2000/svg">
<g clip-path="url(#clip0_32_11118)">
<path d="M0.515625 6.77124H22.5192V31.4839H0.515625V6.77124Z" fill="#06D6A0"/>
<path d="M22.5197 32.0001H0.516129C0.231351 32.0001 0 31.7687 0 31.484V6.77126C0 6.48623 0.231351 6.25513 0.516129 6.25513H22.5197C22.8047 6.25513 23.0358 6.48623 23.0358 6.77126V31.484C23.0358 31.7687 22.8052 32.0001 22.5197 32.0001ZM1.03226 30.9678H22.0035V7.28739H1.03226V30.9678Z" fill="#024430"/>
<path d="M9.95801 17.8767H13.0775V21.0042H9.95801V17.8767Z" fill="white"/>
<path d="M13.078 21.5199H9.95851C9.67373 21.5199 9.44238 21.2888 9.44238 21.0038V17.876C9.44238 17.5912 9.67373 17.3599 9.95851 17.3599H13.078C13.363 17.3599 13.5941 17.5912 13.5941 17.876V21.0038C13.5941 21.2893 13.3635 21.5199 13.078 21.5199ZM10.4746 20.4876H12.5618V18.3921H10.4746V20.4876Z" fill="#024430"/>
<path d="M16.1973 17.8767H19.3167V21.0042H16.1973V17.8767Z" fill="white"/>
<path d="M19.3172 21.5199H16.1978C15.913 21.5199 15.6816 21.2888 15.6816 21.0038V17.876C15.6816 17.5912 15.913 17.3599 16.1978 17.3599H19.3172C19.6023 17.3599 19.8334 17.5912 19.8334 17.876V21.0038C19.8334 21.2893 19.6023 21.5199 19.3172 21.5199ZM16.7139 20.4876H18.8011V18.3921H16.7139V20.4876Z" fill="#024430"/>
<path d="M3.71875 17.8767H6.83821V21.0042H3.71875V17.8767Z" fill="white"/>
<path d="M9.95801 10.9961H13.0775V14.1239H9.95801V10.9961Z" fill="white"/>
<path d="M13.078 14.6393H9.95851C9.67373 14.6393 9.44238 14.4082 9.44238 14.1231V10.9956C9.44238 10.7106 9.67373 10.4795 9.95851 10.4795H13.078C13.363 10.4795 13.5941 10.7106 13.5941 10.9956V14.1231C13.5941 14.4087 13.3635 14.6393 13.078 14.6393ZM10.4746 13.607H12.5618V11.5118H10.4746V13.607Z" fill="#024430"/>
<path d="M16.1973 10.9961H19.3167V14.1239H16.1973V10.9961Z" fill="white"/>
<path d="M19.3172 14.6393H16.1978C15.913 14.6393 15.6816 14.4082 15.6816 14.1231V10.9956C15.6816 10.7106 15.913 10.4795 16.1978 10.4795H19.3172C19.6023 10.4795 19.8334 10.7106 19.8334 10.9956V14.1231C19.8334 14.4087 19.6023 14.6393 19.3172 14.6393ZM16.7139 13.607H18.8011V11.5118H16.7139V13.607Z" fill="#024430"/>
<path d="M3.71875 10.9961H6.83821V14.1239H3.71875V10.9961Z" fill="white"/>
<path d="M9.95801 4.11572H13.0775V7.24349H9.95801V4.11572Z" fill="white"/>
<path d="M13.078 7.75915H9.95851C9.67373 7.75915 9.44238 7.5278 9.44238 7.24302V4.11525C9.44238 3.83022 9.67373 3.59912 9.95851 3.59912H13.078C13.363 3.59912 13.5941 3.83022 13.5941 4.11525V7.24302C13.5941 7.5278 13.3635 7.75915 13.078 7.75915ZM10.4746 6.72689H12.5618V4.63138H10.4746V6.72689Z" fill="#024430"/>
<path d="M16.1973 4.11572H19.3167V7.24349H16.1973V4.11572Z" fill="white"/>
<path d="M19.3172 7.75915H16.1978C15.913 7.75915 15.6816 7.5278 15.6816 7.24302V4.11525C15.6816 3.83022 15.913 3.59912 16.1978 3.59912H19.3172C19.6023 3.59912 19.8334 3.83022 19.8334 4.11525V7.24302C19.8334 7.5278 19.6023 7.75915 19.3172 7.75915ZM16.7139 6.72689H18.8011V4.63138H16.7139V6.72689Z" fill="#024430"/>
<path d="M9.55762 24.7571H14.1022V31.4839H9.55762V24.7571Z" fill="white"/>
<path d="M14.1018 32H9.55714C9.27211 32 9.04102 31.7687 9.04102 31.4839V24.7571C9.04102 24.4723 9.27211 24.241 9.55714 24.241H14.1018C14.3865 24.241 14.6179 24.4723 14.6179 24.7571V31.4839C14.6179 31.7687 14.3865 32 14.1018 32ZM10.0733 30.9678H13.5856V25.2732H10.0733V30.9678Z" fill="#024430"/>
<path d="M16.1973 24.7571H19.3167V27.8849H16.1973V24.7571Z" fill="white"/>
<path d="M19.3172 28.4005H16.1978C15.913 28.4005 15.6816 28.1694 15.6816 27.8844V24.7566C15.6816 24.4718 15.913 24.2405 16.1978 24.2405H19.3172C19.6023 24.2405 19.8334 24.4718 19.8334 24.7566V27.8844C19.8334 28.1699 19.6023 28.4005 19.3172 28.4005ZM16.7139 27.3683H18.8011V25.2727H16.7139V27.3683Z" fill="#024430"/>
<path d="M3.71875 24.7571H6.83821V27.8849H3.71875V24.7571Z" fill="white"/>
<path d="M9.48047 0.516113H31.484V31.4839H9.48047V0.516113Z" fill="white"/>
<path d="M31.4835 32H9.48C9.19497 32 8.96387 31.7687 8.96387 31.4839V0.516129C8.96387 0.231351 9.19497 0 9.48 0H31.4835C31.7683 0 31.9997 0.231351 31.9997 0.516129V31.4839C31.9997 31.7687 31.7683 32 31.4835 32ZM9.99613 30.9677H30.9674V1.03226H9.99613V30.9677Z" fill="#024430"/>
<path d="M11.0293 2.06445H29.9361V29.9354H11.0293V2.06445Z" fill="#FFD166"/>
<path d="M18.9229 17.877H22.0423V21.0045H18.9229V17.877Z" fill="white"/>
<path d="M25.1621 17.877H28.2816V21.0045H25.1621V17.877Z" fill="white"/>
<path d="M12.6836 17.877H15.8031V21.0045H12.6836V17.877Z" fill="white"/>
<path d="M18.9229 10.9963H22.0423V14.1241H18.9229V10.9963Z" fill="white"/>
<path d="M25.1621 10.9963H28.2816V14.1241H25.1621V10.9963Z" fill="white"/>
<path d="M12.6836 10.9963H15.8031V14.1241H12.6836V10.9963Z" fill="white"/>
<path d="M18.9229 4.11572H22.0423V7.24349H18.9229V4.11572Z" fill="white"/>
<path d="M25.1621 4.11572H28.2816V7.24349H25.1621V4.11572Z" fill="white"/>
<path d="M12.6836 4.11572H15.8031V7.24349H12.6836V4.11572Z" fill="white"/>
<path d="M17.8984 24.7571H23.067V31.4839H17.8984V24.7571Z" fill="white"/>
<path d="M25.1621 24.7571H28.2816V27.8849H25.1621V24.7571Z" fill="white"/>
<path d="M12.6836 24.7571H15.8031V27.8849H12.6836V24.7571Z" fill="white"/>
<path d="M31.4835 32H9.48C9.19497 32 8.96387 31.7687 8.96387 31.4839V0.516129C8.96387 0.231351 9.19497 0 9.48 0H31.4835C31.7683 0 31.9997 0.231351 31.9997 0.516129V31.4839C31.9997 31.7687 31.7683 32 31.4835 32ZM9.99613 30.9677H30.9674V1.03226H9.99613V30.9677Z" fill="#024430"/>
</g>
<defs>
<clipPath id="clip0_32_11118">
<rect width="32" height="32" fill="white"/>
</clipPath>
</defs>
</svg>
