<svg width="32" height="32" viewBox="0 0 32 32" fill="none" xmlns="http://www.w3.org/2000/svg">
<g clip-path="url(#clip0_32_11106)">
<path d="M25.4156 18.8455L19.7566 16.4453L16.0003 31.4839L12.2445 16.4453L6.64598 18.5822C6.05651 18.8072 5.67773 19.3042 5.67773 19.8518V31.4602H26.3229V20.0907C26.3229 19.5633 25.9713 19.0814 25.4156 18.8455Z" fill="#AEE6B9"/>
<path d="M15.9998 31.9999C15.9462 31.9999 15.894 31.9916 15.8451 31.9762H5.67726C5.39173 31.9762 5.16113 31.7449 5.16113 31.4601V19.8517C5.16113 19.0889 5.67147 18.4008 6.46179 18.0999L12.0603 15.9628C12.1979 15.9107 12.3519 15.9195 12.4825 15.987C12.6135 16.0551 12.709 16.1763 12.7446 16.32L15.9998 29.3542L19.2561 16.3205C19.2922 16.1738 19.3912 16.0511 19.5261 15.9833C19.6619 15.9162 19.8191 15.9112 19.958 15.9704L25.6163 18.3704C26.3585 18.6854 26.8386 19.3605 26.8386 20.0906V31.4601C26.8386 31.7449 26.608 31.9762 26.3224 31.9762H16.1546C16.1057 31.9916 16.0535 31.9999 15.9998 31.9999ZM16.6667 30.9439H25.8063V20.0906C25.8063 19.7708 25.5792 19.4754 25.2133 19.3202L20.1107 17.1561L16.6667 30.9439ZM6.19339 30.9439H15.333L11.8837 17.135L6.82923 19.0642C6.44263 19.2118 6.19339 19.5208 6.19339 19.8517V30.9439Z" fill="#024430"/>
<path d="M17.3199 16.203C17.1805 16.0498 16.9761 15.9722 16.7697 15.9722H15.2299C15.0235 15.9722 14.8196 16.0493 14.6797 16.203C14.4635 16.4404 14.4325 16.7837 14.5857 17.0516L14.9895 17.6652C15.2604 18.077 15.3771 18.572 15.3194 19.0629L15.023 21.581L15.7818 23.6166C15.8557 23.8215 16.143 23.8215 16.2168 23.6166L16.9756 21.581L16.6792 19.0629C16.6215 18.5725 16.7387 18.077 17.0091 17.6652L17.4126 17.0516C17.5676 16.7837 17.5361 16.4404 17.3199 16.203Z" fill="white"/>
<path d="M16.0003 24.2867C16.0003 24.2867 15.9998 24.2867 15.9993 24.2867C15.6808 24.2867 15.4058 24.0921 15.2975 23.7917L14.4968 21.6451L14.808 19.0029C14.8514 18.6335 14.7632 18.2592 14.5593 17.949L14.1556 17.3353C13.8703 16.8399 13.9348 16.2562 14.2992 15.8557C14.5298 15.6022 14.8695 15.4565 15.2312 15.4565H16.7705C17.1316 15.4565 17.4714 15.6022 17.7025 15.8562H17.703C18.0664 16.2562 18.1309 16.8394 17.8635 17.3081L17.4434 17.9495C17.239 18.2597 17.1508 18.6335 17.1946 19.0029L17.5054 21.6456L16.7032 23.7978C16.5943 24.0926 16.3189 24.2867 16.0003 24.2867ZM15.7345 23.4366C15.7335 23.4381 15.7329 23.4397 15.7324 23.4412L15.7345 23.4366ZM16.2647 23.4308L16.2667 23.4361C16.2662 23.4344 16.2657 23.4329 16.2647 23.4308ZM15.5512 21.5175L16.0003 22.7227L16.4494 21.518L16.1682 19.1231C16.0959 18.5127 16.2425 17.8943 16.58 17.3812L16.9829 16.768C17.0114 16.7166 17.0001 16.6178 16.9381 16.5503C16.9031 16.5117 16.8401 16.4888 16.77 16.4888H15.2307C15.1601 16.4888 15.0971 16.5122 15.0621 16.5508C15.0006 16.6186 14.9892 16.7171 15.0341 16.7955L15.4217 17.383C15.7581 17.8948 15.9048 18.5132 15.833 19.1236L15.5512 21.5175Z" fill="#024430"/>
<path d="M10.2832 8.20235V6.28073C10.2832 3.10608 12.8515 0.516113 15.9994 0.516113C19.1474 0.516113 21.7157 3.10608 21.7157 6.28073V8.20235C21.7157 11.377 19.1474 13.967 15.9994 13.967C12.8515 13.967 10.2832 11.377 10.2832 8.20235Z" fill="white"/>
<path d="M15.9994 14.4836C12.5629 14.4836 9.76758 11.6661 9.76758 8.20287V6.28125C9.76758 2.81754 12.5629 0 15.9994 0C19.4359 0 22.2313 2.81754 22.2313 6.28075V8.20237C22.2313 11.6661 19.4359 14.4836 15.9994 14.4836ZM15.9994 1.03226C13.1322 1.03226 10.7998 3.38685 10.7998 6.28075V8.20237C10.7998 11.0963 13.1327 13.4509 15.9994 13.4509C18.8661 13.4509 21.199 11.0968 21.199 8.20237V6.28075C21.199 3.38685 18.8666 1.03226 15.9994 1.03226Z" fill="#024430"/>
</g>
<defs>
<clipPath id="clip0_32_11106">
<rect width="32" height="32" fill="white"/>
</clipPath>
</defs>
</svg>
