<?xml version="1.0" encoding="UTF-8"?>
<svg xmlns="http://www.w3.org/2000/svg" xmlns:xlink="http://www.w3.org/1999/xlink" width="28px" height="28px" viewBox="0 0 28 28" version="1.1">
<defs>
<filter id="alpha" filterUnits="objectBoundingBox" x="0%" y="0%" width="100%" height="100%">
  <feColorMatrix type="matrix" in="SourceGraphic" values="0 0 0 0 1 0 0 0 0 1 0 0 0 0 1 0 0 0 1 0"/>
</filter>
<mask id="mask0">
  <g filter="url(#alpha)">
<rect x="0" y="0" width="28" height="28" style="fill:rgb(0%,0%,0%);fill-opacity:0.988235;stroke:none;"/>
  </g>
</mask>
<clipPath id="clip1">
  <rect x="0" y="0" width="28" height="28"/>
</clipPath>
<g id="surface5" clip-path="url(#clip1)">
<path style=" stroke:none;fill-rule:evenodd;fill:rgb(9.019608%,8.235294%,8.235294%);fill-opacity:1;" d="M 13.507812 5.558594 C 16.574219 5.484375 19.023438 6.664062 20.855469 9.097656 C 22.234375 11.160156 22.660156 13.40625 22.128906 15.839844 C 21.394531 18.714844 19.652344 20.703125 16.898438 21.800781 C 16.6875 21.921875 16.46875 21.945312 16.242188 21.875 C 16.132812 21.800781 16.066406 21.695312 16.042969 21.566406 C 16.039062 20.566406 16.015625 19.570312 15.96875 18.574219 C 15.890625 18.214844 15.726562 17.898438 15.476562 17.628906 C 18.253906 17.3125 19.511719 15.753906 19.25 12.960938 C 19.167969 12.289062 18.894531 11.714844 18.429688 11.230469 C 18.707031 10.503906 18.695312 9.78125 18.394531 9.058594 C 18.335938 9.007812 18.269531 8.984375 18.191406 8.988281 C 17.910156 9.015625 17.636719 9.082031 17.371094 9.1875 C 16.921875 9.378906 16.488281 9.605469 16.078125 9.863281 C 14.675781 9.472656 13.269531 9.472656 11.867188 9.863281 C 11.4375 9.585938 10.988281 9.347656 10.519531 9.152344 C 10.222656 9.035156 9.917969 8.996094 9.605469 9.023438 C 9.511719 9.195312 9.445312 9.375 9.40625 9.570312 C 9.273438 10.136719 9.3125 10.691406 9.535156 11.230469 C 8.828125 12.066406 8.554688 13.03125 8.714844 14.128906 C 8.855469 15.816406 9.738281 16.90625 11.355469 17.390625 C 11.730469 17.476562 12.109375 17.554688 12.488281 17.628906 C 12.148438 17.925781 11.957031 18.300781 11.902344 18.757812 C 10.730469 19.273438 9.851562 18.96875 9.261719 17.847656 C 8.910156 17.429688 8.46875 17.242188 7.929688 17.28125 C 7.863281 17.304688 7.816406 17.347656 7.785156 17.410156 C 8.0625 17.644531 8.335938 17.886719 8.605469 18.136719 C 8.871094 18.527344 9.101562 18.941406 9.296875 19.378906 C 9.75 19.90625 10.328125 20.171875 11.027344 20.179688 C 11.335938 20.152344 11.636719 20.117188 11.941406 20.070312 C 11.945312 20.59375 11.941406 21.117188 11.921875 21.636719 C 11.890625 21.8125 11.789062 21.917969 11.613281 21.949219 C 11.515625 21.972656 11.417969 21.972656 11.320312 21.949219 C 9.003906 21.125 7.320312 19.601562 6.269531 17.371094 C 5.230469 14.832031 5.339844 12.339844 6.597656 9.898438 C 8.164062 7.285156 10.464844 5.839844 13.507812 5.558594 Z M 13.507812 5.558594 "/>
</g>
</defs>
<g id="surface1">
<use xlink:href="#surface5" mask="url(#mask0)"/>
</g>
</svg>
