<svg width="42" height="42" viewBox="0 0 42 42" fill="none" xmlns="http://www.w3.org/2000/svg">
<g clip-path="url(#clip0_62_696)">
<path d="M0.677734 8.88721H29.5574V41.3226H0.677734V8.88721Z" fill="#06D6A0"/>
<path d="M29.5571 42H0.677419C0.303648 42 0 41.6963 0 41.3226V8.88714C0 8.51303 0.303648 8.20972 0.677419 8.20972H29.5571C29.9312 8.20972 30.2345 8.51303 30.2345 8.88714V41.3226C30.2345 41.6963 29.9318 42 29.5571 42ZM1.35484 40.6451H28.8796V9.56456H1.35484V40.6451Z" fill="#024430"/>
<path d="M13.0703 23.4631H17.1646V27.568H13.0703V23.4631Z" fill="white"/>
<path d="M17.1643 28.245H13.07C12.6962 28.245 12.3926 27.9416 12.3926 27.5675V23.4623C12.3926 23.0886 12.6962 22.7849 13.07 22.7849H17.1643C17.5384 22.7849 17.8417 23.0886 17.8417 23.4623V27.5675C17.8417 27.9423 17.539 28.245 17.1643 28.245V28.245ZM13.7474 26.8901H16.4869V24.1398H13.7474V26.8901Z" fill="#024430"/>
<path d="M21.2598 23.4631H25.3541V27.568H21.2598V23.4631Z" fill="white"/>
<path d="M25.3537 28.245H21.2595C20.8857 28.245 20.582 27.9416 20.582 27.5675V23.4623C20.582 23.0886 20.8857 22.7849 21.2595 22.7849H25.3537C25.7278 22.7849 26.0312 23.0886 26.0312 23.4623V27.5675C26.0312 27.9423 25.7278 28.245 25.3537 28.245V28.245ZM21.9369 26.8901H24.6763V24.1398H21.9369V26.8901Z" fill="#024430"/>
<path d="M4.88086 23.4631H8.97514V27.568H4.88086V23.4631Z" fill="white"/>
<path d="M13.0703 14.4326H17.1646V18.5378H13.0703V14.4326Z" fill="white"/>
<path d="M17.1643 19.2141H13.07C12.6962 19.2141 12.3926 18.9108 12.3926 18.5367V14.4318C12.3926 14.0577 12.6962 13.7544 13.07 13.7544H17.1643C17.5384 13.7544 17.8417 14.0577 17.8417 14.4318V18.5367C17.8417 18.9114 17.539 19.2141 17.1643 19.2141ZM13.7474 17.8593H16.4869V15.1092H13.7474V17.8593Z" fill="#024430"/>
<path d="M21.2598 14.4326H25.3541V18.5378H21.2598V14.4326Z" fill="white"/>
<path d="M25.3537 19.2141H21.2595C20.8857 19.2141 20.582 18.9108 20.582 18.5367V14.4318C20.582 14.0577 20.8857 13.7544 21.2595 13.7544H25.3537C25.7278 13.7544 26.0312 14.0577 26.0312 14.4318V18.5367C26.0312 18.9114 25.7278 19.2141 25.3537 19.2141ZM21.9369 17.8593H24.6763V15.1092H21.9369V17.8593Z" fill="#024430"/>
<path d="M4.88086 14.4326H8.97514V18.5378H4.88086V14.4326Z" fill="white"/>
<path d="M13.0703 5.40186H17.1646V9.50706H13.0703V5.40186Z" fill="white"/>
<path d="M17.1643 10.1837H13.07C12.6962 10.1837 12.3926 9.88002 12.3926 9.50625V5.40105C12.3926 5.02695 12.6962 4.72363 13.07 4.72363H17.1643C17.5384 4.72363 17.8417 5.02695 17.8417 5.40105V9.50625C17.8417 9.88002 17.539 10.1837 17.1643 10.1837ZM13.7474 8.82883H16.4869V6.07847H13.7474V8.82883Z" fill="#024430"/>
<path d="M21.2598 5.40186H25.3541V9.50706H21.2598V5.40186Z" fill="white"/>
<path d="M25.3537 10.1837H21.2595C20.8857 10.1837 20.582 9.88002 20.582 9.50625V5.40105C20.582 5.02695 20.8857 4.72363 21.2595 4.72363H25.3537C25.7278 4.72363 26.0312 5.02695 26.0312 5.40105V9.50625C26.0312 9.88002 25.7278 10.1837 25.3537 10.1837ZM21.9369 8.82883H24.6763V6.07847H21.9369V8.82883Z" fill="#024430"/>
<path d="M12.5449 32.4937H18.5097V41.3226H12.5449V32.4937Z" fill="white"/>
<path d="M18.5094 41.9999H12.5446C12.1705 41.9999 11.8672 41.6963 11.8672 41.3225V32.4936C11.8672 32.1198 12.1705 31.8162 12.5446 31.8162H18.5094C18.8832 31.8162 19.1868 32.1198 19.1868 32.4936V41.3225C19.1868 41.6963 18.8832 41.9999 18.5094 41.9999ZM13.222 40.6451H17.832V33.171H13.222V40.6451Z" fill="#024430"/>
<path d="M21.2598 32.4937H25.3541V36.5989H21.2598V32.4937Z" fill="white"/>
<path d="M25.3537 37.2757H21.2595C20.8857 37.2757 20.582 36.9724 20.582 36.5983V32.4931C20.582 32.1193 20.8857 31.8157 21.2595 31.8157H25.3537C25.7278 31.8157 26.0312 32.1193 26.0312 32.4931V36.5983C26.0312 36.9731 25.7278 37.2757 25.3537 37.2757V37.2757ZM21.9369 35.9209H24.6763V33.1705H21.9369V35.9209Z" fill="#024430"/>
<path d="M4.88086 32.4937H8.97514V36.5989H4.88086V32.4937Z" fill="white"/>
<path d="M12.4434 0.67749H41.323V41.3227H12.4434V0.67749Z" fill="white"/>
<path d="M41.3227 42H12.443C12.0689 42 11.7656 41.6964 11.7656 41.3226V0.677419C11.7656 0.303648 12.0689 0 12.443 0H41.3227C41.6965 0 42.0001 0.303648 42.0001 0.677419V41.3226C42.0001 41.6964 41.6965 42 41.3227 42ZM13.1205 40.6452H40.6453V1.35484H13.1205V40.6452Z" fill="#024430"/>
<path d="M14.4756 2.70972H39.2907V39.2904H14.4756V2.70972Z" fill="#FFD166"/>
<path d="M24.8359 23.4634H28.9302V27.5682H24.8359V23.4634Z" fill="white"/>
<path d="M33.0244 23.4634H37.1187V27.5682H33.0244V23.4634Z" fill="white"/>
<path d="M16.6465 23.4634H20.7408V27.5682H16.6465V23.4634Z" fill="white"/>
<path d="M24.8359 14.4326H28.9302V18.5378H24.8359V14.4326Z" fill="white"/>
<path d="M33.0244 14.4326H37.1187V18.5378H33.0244V14.4326Z" fill="white"/>
<path d="M16.6465 14.4326H20.7408V18.5378H16.6465V14.4326Z" fill="white"/>
<path d="M24.8359 5.40186H28.9302V9.50706H24.8359V5.40186Z" fill="white"/>
<path d="M33.0244 5.40186H37.1187V9.50706H33.0244V5.40186Z" fill="white"/>
<path d="M16.6465 5.40186H20.7408V9.50706H16.6465V5.40186Z" fill="white"/>
<path d="M23.4912 32.4937H30.275V41.3226H23.4912V32.4937Z" fill="white"/>
<path d="M33.0244 32.4937H37.1187V36.5989H33.0244V32.4937Z" fill="white"/>
<path d="M16.6465 32.4937H20.7408V36.5989H16.6465V32.4937Z" fill="white"/>
<path d="M41.3227 42H12.443C12.0689 42 11.7656 41.6964 11.7656 41.3226V0.677419C11.7656 0.303648 12.0689 0 12.443 0H41.3227C41.6965 0 42.0001 0.303648 42.0001 0.677419V41.3226C42.0001 41.6964 41.6965 42 41.3227 42ZM13.1205 40.6452H40.6453V1.35484H13.1205V40.6452Z" fill="#024430"/>
</g>
<defs>
<clipPath id="clip0_62_696">
<rect width="42" height="42" fill="white"/>
</clipPath>
</defs>
</svg>
