<svg width="42" height="42" viewBox="0 0 42 42" fill="none" xmlns="http://www.w3.org/2000/svg">
<g clip-path="url(#clip0_62_951)">
<path d="M23.5557 15.5393H18.444C18.7466 16.434 18.5389 17.4197 17.8985 18.1223L17.4629 18.5999H24.5361L24.1005 18.1223C23.4608 17.4204 23.2524 16.434 23.5557 15.5393Z" fill="white"/>
<path d="M24.5361 19.2774H17.4635C17.1953 19.2774 16.9522 19.1196 16.844 18.8735C16.7355 18.6284 16.7821 18.3419 16.9624 18.1435L17.398 17.6658C17.8707 17.1475 18.0252 16.4159 17.8022 15.7566C17.7324 15.5502 17.7665 15.322 17.8939 15.145C18.0212 14.9677 18.2256 14.8625 18.4446 14.8625H23.5563C23.7746 14.8625 23.9797 14.9677 24.1071 15.145C24.2344 15.3227 24.2685 15.5509 24.1987 15.7566C23.9751 16.4165 24.1302 17.1482 24.6022 17.6658L25.0379 18.1435C25.2188 18.3419 25.2648 18.6284 25.1566 18.8735C25.0474 19.1196 24.8043 19.2774 24.5361 19.2774ZM18.8647 17.9225H23.1343C22.8518 17.3989 22.7178 16.8081 22.7456 16.2167H19.254C19.2811 16.8088 19.1472 17.3989 18.8647 17.9225V17.9225Z" fill="#024430"/>
<path d="M10.8926 14.5749V14.7935C10.8926 15.2053 11.2319 15.5394 11.6507 15.5394H30.3485C30.7673 15.5394 31.1067 15.2053 31.1067 14.7935V12.3352H10.8926V14.5749Z" fill="#FFD166"/>
<path d="M30.3492 16.2167H11.6514C10.8598 16.2167 10.2158 15.5786 10.2158 14.7927V12.3344C10.2158 11.9596 10.5191 11.657 10.8932 11.657H31.1073C31.4814 11.657 31.7847 11.9596 31.7847 12.3344V14.7927C31.7847 15.5786 31.1407 16.2167 30.3492 16.2167ZM11.5707 13.0125V14.7934C11.5707 14.8314 11.6064 14.8625 11.6514 14.8625H30.3492C30.3942 14.8625 30.4299 14.8314 30.4299 14.7934V13.0125H11.5707Z" fill="#024430"/>
<path d="M30.3485 0.67749H11.6507C11.2319 0.67749 10.8926 1.01157 10.8926 1.42338V12.3345H31.1067V1.42338C31.1067 1.01157 30.7673 0.67749 30.3485 0.67749Z" fill="white"/>
<path d="M31.1073 13.0125H10.8932C10.5191 13.0125 10.2158 12.7099 10.2158 12.3351V1.42397C10.2158 0.638058 10.8598 0 11.6514 0H30.3492C31.1407 0 31.7847 0.638058 31.7847 1.42397V12.3351C31.7847 12.7099 31.4814 13.0125 31.1073 13.0125ZM11.5707 11.6577H30.4299V1.42397C30.4299 1.38593 30.3942 1.35484 30.3492 1.35484H11.6514C11.6064 1.35484 11.5707 1.38593 11.5707 1.42397V11.6577Z" fill="#024430"/>
<path d="M6.60093 28.1563H5.24609V24.4467C5.24609 24.0723 5.54941 23.7693 5.92351 23.7693H36.0773C36.4514 23.7693 36.7547 24.0723 36.7547 24.4467V27.8196H35.3999V25.1241H6.60093V28.1563Z" fill="#024430"/>
<path d="M20.3223 21.0752H21.6771V28.1563H20.3223V21.0752Z" fill="#024430"/>
<path d="M21.0003 25.7149C20.1542 25.7149 19.4658 25.0329 19.4658 24.1947C19.4658 23.3569 20.1542 22.6748 21.0003 22.6748C21.8464 22.6748 22.5347 23.3569 22.5347 24.1947C22.5347 25.0329 21.8464 25.7149 21.0003 25.7149V25.7149ZM21.0003 24.0296C20.9014 24.0296 20.8207 24.1034 20.8207 24.1947C20.8207 24.3776 21.1792 24.3776 21.1792 24.1947C21.1799 24.1034 21.0992 24.0296 21.0003 24.0296Z" fill="#024430"/>
<path d="M22.4853 24.1947C22.4853 23.3879 21.8204 22.7336 21.0005 22.7336C20.1805 22.7336 19.5156 23.3879 19.5156 24.1947C19.5156 25.0017 20.1805 25.656 21.0005 25.656C21.8204 25.656 22.4853 25.0017 22.4853 24.1947V24.1947Z" fill="white"/>
<path d="M21.0001 26.3334C19.808 26.3334 18.8379 25.3741 18.8379 24.1946C18.8379 23.0154 19.808 22.0562 21.0001 22.0562C22.1922 22.0562 23.1624 23.0154 23.1624 24.1946C23.1624 25.3741 22.1922 26.3334 21.0001 26.3334V26.3334ZM21.0001 23.411C20.5549 23.411 20.1927 23.7633 20.1927 24.1946C20.1927 24.6262 20.5549 24.9785 21.0001 24.9785C21.4454 24.9785 21.8076 24.6262 21.8076 24.1946C21.8076 23.7633 21.4454 23.411 21.0001 23.411Z" fill="#024430"/>
<path d="M10.2714 41.3226H2.03191C1.65814 41.3226 1.35449 41.0189 1.35449 40.6452V31.8278C1.35449 31.454 1.65814 31.1504 2.03191 31.1504H10.2714C10.6452 31.1504 10.9488 31.454 10.9488 31.8278V40.6452C10.9488 41.0189 10.6459 41.3226 10.2714 41.3226Z" fill="#06D6A0"/>
<path d="M10.2721 42.0001H2.03257C1.28536 42.0001 0.677734 41.3925 0.677734 40.6453V31.8273C0.677734 31.08 1.28536 30.4724 2.03257 30.4724H10.2721C11.0193 30.4724 11.6269 31.08 11.6269 31.8273V40.6453C11.6269 41.3925 11.0193 42.0001 10.2721 42.0001ZM2.03257 31.8273V40.6453H10.2734L10.2727 31.8273H2.03257Z" fill="#024430"/>
<path d="M3.66016 32.8616H6.58748V34.2164H3.66016V32.8616Z" fill="white"/>
<path d="M3.66016 35.5593H8.64256V36.9142H3.66016V35.5593Z" fill="white"/>
<path d="M3.66016 38.2566H8.64256V39.6114H3.66016V38.2566Z" fill="white"/>
<path d="M25.1197 41.3226H16.8796C16.5058 41.3226 16.2021 41.0189 16.2021 40.6452V31.8278C16.2021 31.454 16.5058 31.1504 16.8796 31.1504H25.1191C25.4928 31.1504 25.7965 31.454 25.7965 31.8278V40.6452C25.7972 41.0189 25.4935 41.3226 25.1197 41.3226Z" fill="#06D6A0"/>
<path d="M25.1204 42.0001H16.8802C16.133 42.0001 15.5254 41.3925 15.5254 40.6453V31.8273C15.5254 31.08 16.133 30.4724 16.8802 30.4724H25.1197C25.867 30.4724 26.4746 31.08 26.4746 31.8273V40.6453C26.4752 41.3925 25.8676 42.0001 25.1204 42.0001ZM16.8802 31.8273V40.6453H25.1211L25.1204 31.8273H16.8802Z" fill="#024430"/>
<path d="M18.5078 32.8616H21.4345V34.2164H18.5078V32.8616Z" fill="white"/>
<path d="M18.5078 35.5593H23.4902V36.9142H18.5078V35.5593Z" fill="white"/>
<path d="M18.5078 38.2566H23.4902V39.6114H18.5078V38.2566Z" fill="white"/>
<path d="M39.9677 41.3226H31.7282C31.3544 41.3226 31.0508 41.0189 31.0508 40.6452V31.8278C31.0508 31.454 31.3544 31.1504 31.7282 31.1504H39.9677C40.3415 31.1504 40.6451 31.454 40.6451 31.8278V40.6452C40.6451 41.0189 40.3415 41.3226 39.9677 41.3226Z" fill="#FFD166"/>
<path d="M39.9674 42.0001H31.7279C30.9807 42.0001 30.373 41.3925 30.373 40.6453V31.8273C30.373 31.08 30.9807 30.4724 31.7279 30.4724H39.9674C40.7146 30.4724 41.3222 31.08 41.3222 31.8273V40.6453C41.3222 41.3925 40.7146 42.0001 39.9674 42.0001ZM31.7279 31.8273V40.6453H39.9687L39.9674 31.8273H31.7279Z" fill="#024430"/>
<path d="M33.3574 32.8616H36.2838V34.2164H33.3574V32.8616Z" fill="white"/>
<path d="M33.3574 35.5593H38.3398V36.9142H33.3574V35.5593Z" fill="white"/>
<path d="M33.3574 38.2566H38.3398V39.6114H33.3574V38.2566Z" fill="white"/>
</g>
<defs>
<clipPath id="clip0_62_951">
<rect width="42" height="42" fill="white"/>
</clipPath>
</defs>
</svg>
