<svg width="42" height="42" viewBox="0 0 42 42" fill="none" xmlns="http://www.w3.org/2000/svg">
<g clip-path="url(#clip0_62_830)">
<path d="M33.3577 23.9063L25.9302 20.7983L22.0096 27.6814C21.5772 28.4408 20.4235 28.4408 19.9915 27.6814L16.0712 20.7983L8.72314 23.5656C7.94881 23.8567 7.45166 24.5003 7.45166 25.2095V41.3227H34.5484V25.5191C34.5484 24.8364 34.087 24.2119 33.3577 23.9063Z" fill="white"/>
<path d="M34.5486 41.9999H7.45183C7.07806 41.9999 6.77441 41.6963 6.77441 41.3225V25.2093C6.77441 24.217 7.44522 23.3223 8.48351 22.9313L15.8323 20.1641C16.1458 20.0467 16.4954 20.174 16.6598 20.4628L20.5801 27.3461C20.7002 27.5575 20.9324 27.5737 21.0009 27.5737C21.0694 27.5737 21.3009 27.5575 21.421 27.3468L25.3426 20.4634C25.5119 20.1654 25.8804 20.0414 26.1927 20.174L33.6191 23.2816C34.5952 23.6901 35.2267 24.5686 35.2267 25.5189V41.3225C35.226 41.6963 34.9234 41.9999 34.5486 41.9999ZM8.12925 40.6451H33.8712V25.5189C33.8712 25.1098 33.5745 24.731 33.0955 24.5313L26.2224 21.6549L22.5975 28.0173C22.273 28.5878 21.6757 28.9285 21.0009 28.9292C20.3254 28.9292 19.7281 28.5885 19.4029 28.0173L15.7684 21.6367L8.96114 24.2002C8.45572 24.3897 8.12925 24.7859 8.12925 25.2093V40.6451Z" fill="#024430"/>
<path d="M9.48389 39.2903V25.4568L15.1639 23.3127L18.2252 28.6874C18.7868 29.6715 19.8496 30.2834 21.0007 30.2834C22.1518 30.2834 23.2152 29.6715 23.7762 28.6874L26.8067 23.3677L32.5161 25.7575V39.2903H9.48389Z" fill="#06D6A0"/>
<path d="M13.0938 10.6301V8.142C13.0938 4.03151 16.6462 0.67749 20.9998 0.67749C25.3535 0.67749 28.9059 4.03151 28.9059 8.142V10.6301C28.9059 14.7415 25.3544 18.0946 20.9998 18.0946C16.6452 18.0946 13.0938 14.7415 13.0938 10.6301Z" fill="white"/>
<path d="M20.9998 18.7719C16.2675 18.7719 12.417 15.1192 12.417 10.63V8.14193C12.417 3.65271 16.2675 0 20.9998 0C25.7322 0 29.5834 3.65271 29.5834 8.14193V10.63C29.5834 15.1199 25.7322 18.7719 20.9998 18.7719ZM20.9998 1.35484C17.0141 1.35484 13.7718 4.39992 13.7718 8.14193V10.63C13.7718 14.372 17.0147 17.4171 20.9998 17.4171C24.985 17.4171 28.2285 14.372 28.2285 10.63V8.14193C28.2285 4.39992 24.9856 1.35484 20.9998 1.35484Z" fill="#024430"/>
</g>
<defs>
<clipPath id="clip0_62_830">
<rect width="42" height="42" fill="white"/>
</clipPath>
</defs>
</svg>
