<svg width="102" height="179" viewBox="0 0 102 179" fill="none" xmlns="http://www.w3.org/2000/svg">
<path d="M53.9873 124.064C53.9873 124.064 65.745 81.9073 75.1234 67.5865C84.5018 53.2657 102 37.5481 102 37.5481C102 37.5481 101.584 102.545 53.9873 124.064Z" fill="#AEE6B9"/>
<path d="M54.8308 123.347C58.7857 116.747 62.3624 109.928 65.5437 102.923C66.8897 95.3878 68.8388 87.9729 71.3721 80.7496C71.3721 80.6112 71.6113 80.6867 71.5862 80.8251C70.0252 87.4822 68.2125 94.0889 66.5508 100.733C71.2966 90.4646 75.8033 80.0701 81.4555 70.3802C82.7572 65.6922 84.5858 61.1666 86.9063 56.89C86.9063 56.7642 87.1707 56.8271 87.1078 56.9529C85.6751 60.2494 84.4516 63.6329 83.4445 67.0832C86.1048 62.7537 89.0884 58.6311 92.3697 54.7507C92.5712 54.5116 92.9866 54.7507 92.7852 55.0401C85.2321 64.667 80.0205 75.6404 75.048 86.7397C80.3833 80.9479 85.3089 74.792 89.7891 68.3165C89.7891 68.2535 89.9402 68.3164 89.9024 68.3794C85.2343 75.634 79.953 82.4754 74.1164 88.8287C70.5035 96.9706 66.9536 105.188 62.6357 112.864C71.2588 105.591 77.8804 96.1652 84.439 87.0795C84.4721 87.0446 84.5166 87.0227 84.5644 87.0178C84.6122 87.0128 84.6602 87.0252 84.6997 87.0525C84.7393 87.0799 84.7677 87.1205 84.7799 87.1669C84.7921 87.2134 84.7873 87.2628 84.7663 87.306C78.2077 97.2727 71.4099 106.673 61.9685 114.047C60.0574 117.448 57.956 120.737 55.6743 123.901C55.6379 123.956 55.591 124.004 55.5362 124.041C55.4814 124.078 55.4198 124.104 55.3549 124.118C55.2901 124.131 55.2232 124.132 55.1581 124.119C55.093 124.107 55.031 124.082 54.9756 124.046C54.9203 124.009 54.8726 123.962 54.8353 123.907C54.7981 123.853 54.772 123.791 54.7585 123.726C54.7451 123.661 54.7446 123.595 54.757 123.53C54.7694 123.464 54.7945 123.402 54.8308 123.347V123.347Z" fill="#3D565F"/>
<path d="M50.3493 127.84C50.3493 127.84 71.4728 88.9671 65.3296 51.2775C59.1864 13.5878 52.6278 0.160492 52.6278 0.160492C52.6278 0.160492 19.4445 58.8154 50.3493 127.84Z" fill="#AEE6B9"/>
<path d="M41.6761 66.756C43.4661 77.4372 46.1958 87.9396 49.8335 98.141C49.8335 84.2983 50.1482 70.4557 50.5258 56.6131C48.1634 48.2484 46.8234 39.6284 46.5352 30.9414C46.5352 30.6771 46.9129 30.6897 46.9255 30.9414C47.595 38.4156 48.8323 45.8281 50.6265 53.1147C50.9538 41.7051 51.3273 30.2954 51.7469 18.8858C51.7562 18.8546 51.7753 18.8272 51.8014 18.8078C51.8275 18.7884 51.8591 18.7779 51.8917 18.7779C51.9242 18.7779 51.9558 18.7884 51.9819 18.8078C52.008 18.8272 52.0272 18.8546 52.0364 18.8858C52.0364 36.7176 52.0364 54.5368 51.9231 72.3686C54.4896 65.4739 56.5265 58.3936 58.016 51.1894C58.016 51.1264 58.1419 51.1894 58.1293 51.1894C57.4998 59.5201 54.9696 67.5488 51.835 75.2881C51.7595 86.6893 51.6336 98.078 51.3818 109.467C54.9444 97.3607 58.7713 85.6323 59.8035 72.8342C59.7971 72.8134 59.7956 72.7915 59.7991 72.7701C59.8027 72.7487 59.8113 72.7284 59.8242 72.7109C59.837 72.6934 59.8538 72.6792 59.8732 72.6694C59.8926 72.6596 59.914 72.6545 59.9357 72.6545C59.9574 72.6545 59.9788 72.6596 59.9982 72.6694C60.0176 72.6792 60.0344 72.6934 60.0473 72.7109C60.0601 72.7284 60.0687 72.7487 60.0723 72.7701C60.0759 72.7915 60.0743 72.8134 60.0679 72.8342C59.7909 86.9536 56.1529 101.274 51.4951 114.551C51.4487 114.684 51.3659 114.802 51.2559 114.891C51.1552 119.043 51.0336 123.204 50.8909 127.374C50.8909 127.498 50.8418 127.616 50.7545 127.703C50.6671 127.791 50.5486 127.84 50.4251 127.84C50.3016 127.84 50.1831 127.791 50.0957 127.703C50.0084 127.616 49.9593 127.498 49.9593 127.374C49.7957 118.855 49.7453 110.335 49.7579 101.816C45.1514 90.6623 42.3388 78.8508 41.4243 66.8189C41.4873 66.6679 41.6635 66.6427 41.6761 66.756Z" fill="#3D565F"/>
<path d="M43.1235 60.7407C43.8588 64.1241 44.351 67.5558 44.5964 71.0094C44.5964 71.1227 44.4328 71.1479 44.395 71.0094C43.5769 67.6398 42.9964 64.2169 42.6578 60.7659C42.6326 60.5268 43.0732 60.4765 43.1235 60.7407Z" fill="#3D565F"/>
<path d="M55.4728 32.3257C55.4728 32.1998 55.6742 32.2376 55.6742 32.3257C55.6451 34.7243 55.2893 37.1079 54.6168 39.4106C54.6168 39.5993 54.2895 39.5112 54.3273 39.3225C54.793 37.0196 55.07 34.7167 55.4728 32.3257Z" fill="#3D565F"/>
<path d="M42.6453 130.847C42.6453 130.847 43.5013 90.2633 31.857 70.0908C20.2126 49.9183 0.901855 39.6497 0.901855 39.6497C0.901855 39.6497 8.69414 111.178 42.6453 130.847Z" fill="#AEE6B9"/>
<path d="M21.421 96.1401C26.1034 103.228 31.3756 109.909 37.1818 116.111C34.8571 107.806 32.1716 99.6469 29.1251 91.6349C22.5917 85.9091 16.1212 79.982 12.1181 72.1546C12.106 72.1424 12.0969 72.1276 12.0915 72.1114C12.086 72.0951 12.0842 72.0779 12.0863 72.0609C12.0885 72.0439 12.0945 72.0276 12.1039 72.0132C12.1132 71.9988 12.1258 71.9868 12.1405 71.978C12.1552 71.9692 12.1717 71.9638 12.1888 71.9623C12.2058 71.9608 12.2231 71.9631 12.2391 71.9692C12.2551 71.9753 12.2696 71.985 12.2813 71.9975C12.2931 72.01 12.3018 72.025 12.3069 72.0414C16.6122 78.9752 22.3777 84.5249 28.4328 89.8606C23.7545 77.7947 18.3396 66.0274 12.2188 54.6248C12.1837 54.5664 12.1733 54.4965 12.1898 54.4304C12.2064 54.3643 12.2485 54.3075 12.3069 54.2725C12.3653 54.2374 12.4353 54.227 12.5014 54.2435C12.5675 54.2601 12.6243 54.3021 12.6594 54.3605C16.3834 60.3463 19.7789 66.53 22.8309 72.8845C21.7357 68.5429 20.8671 64.0756 19.7467 59.8095C19.7467 59.7862 19.756 59.7638 19.7725 59.7472C19.789 59.7307 19.8115 59.7214 19.8348 59.7214C19.8582 59.7214 19.8806 59.7307 19.8971 59.7472C19.9137 59.7638 19.923 59.7862 19.923 59.8095C22.2188 65.3297 23.8254 71.1117 24.7066 77.0247C28.7889 86.0243 32.2176 95.306 34.9662 104.798C34.6641 98.7198 34.2864 92.6543 33.7073 86.5887C33.7073 86.4754 33.8836 86.4502 33.9088 86.5887C35.2055 93.3211 35.7962 100.17 35.6712 107.025C37.3454 113.078 38.7679 119.194 39.9009 125.361C39.9009 125.524 39.6869 125.6 39.6365 125.436C39.0071 122.844 38.3777 120.289 37.6224 117.722C37.5768 117.732 37.5295 117.732 37.4839 117.722C31.1896 111.43 25.3108 104.332 21.4084 96.3288L21.421 96.1401Z" fill="#3D565F"/>
<path d="M7.9263 63.1192C9.18515 64.516 10.444 65.9884 11.7028 67.4355C12.9236 68.6505 14.0473 69.9591 15.064 71.3492C15.073 71.3613 15.0775 71.3763 15.0764 71.3914C15.0753 71.4066 15.0688 71.4208 15.0581 71.4315C15.0474 71.4422 15.0332 71.4487 15.0181 71.4497C15.003 71.4508 14.988 71.4464 14.9759 71.4373C13.5144 70.3649 12.2094 69.0943 11.0986 67.662C9.86774 66.3074 8.75979 64.8461 7.7878 63.2953C7.76914 63.2756 7.75819 63.2498 7.75695 63.2227C7.75571 63.1956 7.76426 63.1689 7.78104 63.1476C7.79782 63.1262 7.82173 63.1116 7.84839 63.1064C7.87504 63.1012 7.9027 63.1057 7.9263 63.1192V63.1192Z" fill="#3D565F"/>
<path d="M77.2383 125.889L75.778 138.901L71.3469 178.176H32.7757L28.3445 138.851L26.8843 125.839H77.2383V125.889Z" fill="#6A838C"/>
<path d="M77.2383 125.889L75.778 138.901H28.3445L26.8843 125.889H77.2383V125.889Z" fill="#3D565F"/>
<path d="M23.4606 131.2H80.6753V116.464H23.4606V131.2Z" fill="#6A838C"/>
</svg>
