<svg width="30" height="30" viewBox="0 0 30 30" fill="none" xmlns="http://www.w3.org/2000/svg">
<path d="M6.18576 18.0384C5.57006 19.5921 4.59686 21.1301 3.29361 22.6106C2.87888 23.0816 2.82622 23.7541 3.16268 24.2837C3.42178 24.6911 3.85757 24.9232 4.319 24.9232C4.449 24.9232 4.5813 24.9049 4.71176 24.8669C7.47391 24.0598 13.9169 21.1933 14.09 12.0307C14.1568 8.49267 11.5691 5.45312 8.19947 5.11071C6.34231 4.92485 4.48425 5.52819 3.1073 6.77285C1.72852 8.01888 0.9375 9.79775 0.9375 11.654C0.9375 14.7508 3.13567 17.4589 6.18576 18.0384ZM4.36432 8.16399C5.24002 7.37251 6.34231 6.95091 7.51099 6.95091C7.67624 6.95091 7.84286 6.95915 8.00995 6.97654C10.4164 7.22053 12.2635 9.42512 12.215 11.995C12.0955 18.335 8.66272 21.1892 5.82001 22.4659C6.71951 21.2492 7.4263 19.9976 7.92893 18.7292C8.12484 18.2352 8.09235 17.6832 7.84012 17.2144C7.57598 16.7228 7.10495 16.374 6.54877 16.2572C4.38354 15.8045 2.8125 13.8682 2.8125 11.654C2.8125 10.3274 3.37829 9.05526 4.36432 8.16399Z" fill="#024430"/>
<path d="M18.1348 24.2836C18.3939 24.691 18.8297 24.9231 19.2911 24.9231C19.4211 24.9231 19.553 24.9048 19.6839 24.8668C22.446 24.0598 28.8886 21.1932 29.0616 12.0307V12.0302C29.1276 8.49214 26.5403 5.45304 23.1702 5.11064C21.3108 4.92158 19.4559 5.52766 18.079 6.77278C16.7002 8.01881 15.9092 9.79768 15.9092 11.6539C15.9092 14.7507 18.1074 17.4588 21.157 18.0383C20.5408 19.5934 19.5676 21.1315 18.2648 22.6109C17.8501 23.0824 17.7979 23.7544 18.1348 24.2836ZM22.9001 18.73C23.096 18.2361 23.064 17.684 22.8122 17.2153C22.5476 16.7232 22.0771 16.3744 21.5204 16.2572C19.3552 15.8045 17.7842 13.8681 17.7842 11.6539C17.7842 10.3269 18.35 9.05519 19.336 8.16392C20.2112 7.37244 21.3135 6.95084 22.4826 6.95084C22.6474 6.95084 22.8141 6.95908 22.9816 6.97647C25.3876 7.22046 27.2352 9.42505 27.1866 11.9949C27.0676 18.3354 23.6344 21.1891 20.7917 22.4658C21.6907 21.25 22.3966 19.9985 22.9001 18.73Z" fill="#024430"/>
</svg>
