<svg width="42" height="42" viewBox="0 0 42 42" fill="none" xmlns="http://www.w3.org/2000/svg">
<path d="M25.6376 19.3379C24.683 20.6514 22.9624 21.5342 20.9999 21.5342C19.0375 21.5342 17.3175 20.6507 16.3623 19.3379L13.4042 20.7787C13.0004 20.9758 12.752 21.3377 12.752 21.7293V31.6321H29.2472V21.9116C29.2472 21.5401 29.024 21.1948 28.6532 20.9914L25.6376 19.3379Z" fill="white"/>
<path d="M29.2476 32.3103H12.7516C12.3775 32.3103 12.0742 32.007 12.0742 31.6329V21.7301C12.0742 21.0791 12.4698 20.4808 13.1072 20.1705L16.0652 18.7297C16.36 18.5855 16.7162 18.6748 16.91 18.9404C17.7703 20.1232 19.3372 20.8575 20.9996 20.8575C22.662 20.8575 24.2295 20.1232 25.0892 18.9404C25.289 18.6649 25.6634 18.5822 25.9624 18.7446L28.9787 20.3981C29.5714 20.7226 29.9243 21.2882 29.9243 21.9123V31.6336C29.925 32.007 29.6217 32.3103 29.2476 32.3103V32.3103ZM13.429 30.9555H28.5702V21.9117C28.5702 21.7923 28.4776 21.6669 28.3284 21.5855L25.8053 20.2023C24.6503 21.4698 22.8975 22.2117 21.0003 22.2117C19.0927 22.2117 17.3314 21.4625 16.1764 20.1821L13.7013 21.3878C13.5332 21.4698 13.4297 21.6008 13.4297 21.7294V30.9555H13.429Z" fill="#024430"/>
<path d="M14.7842 29.6005V22.3673L15.927 21.8103C17.2891 22.929 19.0874 23.5663 20.9999 23.5663C22.8836 23.5663 24.6565 22.9478 26.0114 21.8606L27.2157 22.5205V29.6005H14.7842Z" fill="#06D6A0"/>
<path d="M16.3535 13.521V12.0038C16.3535 9.49727 18.4406 7.45215 20.9998 7.45215C23.5589 7.45215 25.6461 9.49727 25.6461 12.0038V13.521C25.6461 16.0276 23.5589 18.0727 20.9998 18.0727C18.4406 18.0727 16.3535 16.0276 16.3535 13.521V13.521Z" fill="white"/>
<path d="M20.9995 18.75C18.0642 18.75 15.6758 16.4039 15.6758 13.521V12.0037C15.6758 9.12045 18.0642 6.77466 20.9995 6.77466C23.9347 6.77466 26.3231 9.12045 26.3231 12.0037V13.521C26.3231 16.4039 23.9347 18.75 20.9995 18.75V18.75ZM20.9995 8.12948C18.8114 8.12948 17.0306 9.86699 17.0306 12.0037V13.521C17.0306 15.6574 18.8108 17.3952 20.9995 17.3952C23.1881 17.3952 24.9683 15.6574 24.9683 13.521V12.0037C24.9683 9.86699 23.1875 8.12948 20.9995 8.12948V8.12948Z" fill="#024430"/>
<path d="M40.7257 25.478L37.0045 23.8625L35.0401 27.4404C34.8231 27.8354 34.2456 27.8354 34.0286 27.4404L32.0642 23.8625L28.3838 25.3007C27.9965 25.4515 27.7471 25.7863 27.7471 26.1554V34.5311H41.3224V26.3162C41.3224 25.9613 41.0915 25.6368 40.7257 25.478V25.478Z" fill="#FFD166"/>
<path d="M41.322 35.2084H27.7467C27.373 35.2084 27.0693 34.9047 27.0693 34.531V26.1553C27.0693 25.5064 27.4887 24.9232 28.1377 24.6699L31.8188 23.231C32.1357 23.1077 32.4962 23.2386 32.6586 23.536L34.5351 26.9535L36.4115 23.536C36.5802 23.229 36.9539 23.101 37.2751 23.2406L40.9962 24.8561C41.6058 25.121 42.0001 25.6942 42.0001 26.3161V34.531C41.9994 34.9047 41.6958 35.2084 41.322 35.2084ZM28.4242 33.8536H40.6446V26.3161C40.6446 26.2354 40.5689 26.1481 40.4558 26.0991L37.3016 24.7294L35.6345 27.7662C35.4149 28.1654 34.9945 28.4138 34.5351 28.4138C34.0766 28.4138 33.6552 28.1661 33.4356 27.7662L31.7576 24.7099L28.6302 25.9317C28.5068 25.98 28.4242 26.0693 28.4242 26.1553V33.8536Z" fill="#024430"/>
<path d="M38.1948 19.548L38.521 17.8105V16.6055C38.521 14.2759 36.7411 12.375 34.56 12.375C34.5511 12.375 34.5432 12.3763 34.5342 12.3763C34.5253 12.3763 34.5174 12.375 34.5084 12.375C32.3274 12.375 30.5479 14.2759 30.5479 16.6055V17.8105L30.8737 19.548C31.4088 21.0073 32.6796 22.0767 34.1962 22.2259C34.2991 22.2381 34.4036 22.2454 34.5084 22.2454C34.5174 22.2454 34.5253 22.2441 34.5342 22.2441C34.5432 22.2441 34.5511 22.2454 34.56 22.2454C34.6649 22.2454 34.7694 22.2381 34.8723 22.2259C36.3898 22.0767 37.6606 21.0073 38.1948 19.548V19.548Z" fill="white"/>
<path d="M34.5604 22.9227C34.3761 22.9227 34.2455 22.9134 34.1158 22.8986C32.3975 22.7299 30.8697 21.5057 30.2373 19.7811C30.2244 19.7457 30.2141 19.71 30.2072 19.6726L29.8814 17.9358C29.8741 17.8944 29.8701 17.8524 29.8701 17.8104V16.6054C29.8701 13.8991 31.951 11.6975 34.5081 11.6975C37.1175 11.6975 39.198 13.8991 39.198 16.6054V17.8104C39.198 17.8524 39.1937 17.8944 39.1865 17.9358L38.8607 19.6726C38.8537 19.7093 38.8435 19.745 38.8309 19.7811C38.1988 21.505 36.671 22.7299 34.9384 22.8999C34.8223 22.9134 34.6917 22.9227 34.5604 22.9227V22.9227ZM31.5276 19.365C31.993 20.5776 33.0607 21.4333 34.2617 21.551C34.3523 21.5619 34.4297 21.5672 34.5081 21.5672C34.525 21.5672 34.5812 21.5672 34.5991 21.5686C34.6381 21.5672 34.7155 21.5613 34.7926 21.5523C36.0071 21.4333 37.0755 20.5776 37.5402 19.365L37.8439 17.7475V16.6048C37.8439 14.6456 36.371 13.0517 34.5604 13.0517C34.5435 13.0517 34.4866 13.0517 34.4694 13.0503C32.6982 13.0517 31.2249 14.645 31.2249 16.6048V17.7475L31.5276 19.365ZM38.1945 19.5479H38.2014H38.1945Z" fill="#024430"/>
<path d="M0.677734 26.8125V34.5485H14.9285V26.8125C14.9285 25.5761 13.9054 24.5742 12.6435 24.5742H10.6593L7.80342 29.0505L4.94759 24.5742H2.96266C1.70046 24.5749 0.677734 25.5768 0.677734 26.8125V26.8125Z" fill="#06D6A0"/>
<path d="M14.9281 35.2259H0.677408C0.303643 35.2259 0 34.9225 0 34.5485V26.8132C0 25.205 1.32836 23.8975 2.96234 23.8975H4.94726C5.17814 23.8975 5.39347 24.0155 5.51817 24.2104L7.80376 27.7919L10.0887 24.2104C10.2134 24.0155 10.4287 23.8975 10.6596 23.8975H12.6439C14.2772 23.8975 15.6062 25.2056 15.6062 26.8132V34.5485C15.6055 34.9225 15.3019 35.2259 14.9281 35.2259ZM1.35482 33.871H14.2507V26.8132C14.2507 25.9522 13.53 25.2523 12.6432 25.2523H11.0304L8.374 29.4156C8.12493 29.8053 7.4806 29.8053 7.23186 29.4156L4.57515 25.2523H2.96234C2.07556 25.2516 1.35482 25.9522 1.35482 26.8132V33.871Z" fill="#024430"/>
<path d="M3.64551 17.87V16.5023C3.64551 14.2432 5.514 12.4001 7.80356 12.4001C10.0931 12.4001 11.9616 14.2432 11.9616 16.5023V17.87C11.9616 20.1292 10.0931 21.9725 7.80356 21.9725C5.514 21.9725 3.64551 20.1292 3.64551 17.87Z" fill="white"/>
<path d="M7.80324 22.6498C5.13694 22.6498 2.96777 20.5058 2.96777 17.8699V16.5022C2.96777 13.8667 5.13694 11.7227 7.80324 11.7227C10.4695 11.7227 12.6387 13.8667 12.6387 16.5022V17.8699C12.6377 20.5058 10.4689 22.6498 7.80324 22.6498ZM7.80324 13.0781C5.88414 13.0781 4.32259 14.6145 4.32259 16.5029V17.8706C4.32259 19.7593 5.88414 21.2957 7.80324 21.2957C9.72234 21.2957 11.2839 19.7593 11.2839 17.8706V16.5022C11.2829 14.6145 9.72234 13.0781 7.80324 13.0781Z" fill="#024430"/>
</svg>
