<svg width="1920" height="1362" viewBox="0 0 1920 1362" fill="none" xmlns="http://www.w3.org/2000/svg">
<path d="M0 -114H1920M0 -7.99976H1920M0 98.0002H1920M0 204H1920M0 310H1920M0 416H1920M0 522H1920M0 628H1920M0 734H1920M0 840H1920M0 946H1920M0 1052H1920M0 1158H1920M0 1264H1920M0 1370H1920M6.00008 1598L6 -322M112 1598L112 -322M218 1598L218 -322M324 1598L324 -322M430 1598L430 -322M536 1598L536 -322M642 1598L642 -322M748 1598L748 -322M854 1598L854 -322M960 1598L960 -322M1066 1598L1066 -322M1172 1598L1172 -322M1278 1598L1278 -322M1384 1598L1384 -322M1490 1598L1490 -322M1596 1598L1596 -322M1702 1598L1702 -322M1808 1598L1808 -322M1914 1598L1914 -322" stroke="white"/>
</svg>
