<svg width="25" height="24" viewBox="0 0 25 24" fill="none" xmlns="http://www.w3.org/2000/svg">
<g clip-path="url(#clip0_222_15988)">
<path d="M1.125 3.75H23.625C23.9234 3.75 24.2095 3.55246 24.4205 3.20082C24.6315 2.84919 24.75 2.37228 24.75 1.875C24.75 1.37772 24.6315 0.900806 24.4205 0.549175C24.2095 0.197544 23.9234 0 23.625 0H1.125C0.826631 0 0.540483 0.197544 0.329505 0.549175C0.118526 0.900806 0 1.37772 0 1.875C0 2.37228 0.118526 2.84919 0.329505 3.20082C0.540483 3.55246 0.826631 3.75 1.125 3.75Z" fill="#B9CAD0"/>
<path d="M1.125 10.5H23.625C23.9234 10.5 24.2095 10.3025 24.4205 9.95082C24.6315 9.59919 24.75 9.12228 24.75 8.625C24.75 8.12772 24.6315 7.65081 24.4205 7.29918C24.2095 6.94754 23.9234 6.75 23.625 6.75H1.125C0.826631 6.75 0.540483 6.94754 0.329505 7.29918C0.118526 7.65081 0 8.12772 0 8.625C0 9.12228 0.118526 9.59919 0.329505 9.95082C0.540483 10.3025 0.826631 10.5 1.125 10.5Z" fill="#B9CAD0"/>
<path d="M23.625 13.5H1.125C0.826631 13.5 0.540483 13.6975 0.329505 14.0492C0.118526 14.4008 0 14.8777 0 15.375C0 15.8723 0.118526 16.3492 0.329505 16.7008C0.540483 17.0525 0.826631 17.25 1.125 17.25H23.625C23.9234 17.25 24.2095 17.0525 24.4205 16.7008C24.6315 16.3492 24.75 15.8723 24.75 15.375C24.75 14.8777 24.6315 14.4008 24.4205 14.0492C24.2095 13.6975 23.9234 13.5 23.625 13.5Z" fill="#B9CAD0"/>
<path d="M23.625 20.25H1.125C0.826631 20.25 0.540483 20.4475 0.329505 20.7992C0.118526 21.1508 0 21.6277 0 22.125C0 22.6223 0.118526 23.0992 0.329505 23.4508C0.540483 23.8025 0.826631 24 1.125 24H23.625C23.9234 24 24.2095 23.8025 24.4205 23.4508C24.6315 23.0992 24.75 22.6223 24.75 22.125C24.75 21.6277 24.6315 21.1508 24.4205 20.7992C24.2095 20.4475 23.9234 20.25 23.625 20.25Z" fill="#B9CAD0"/>
</g>
<defs>
<clipPath id="clip0_222_15988">
<rect width="24.75" height="24" fill="white"/>
</clipPath>
</defs>
</svg>
