<svg width="57" height="57" viewBox="0 0 57 57" fill="none" xmlns="http://www.w3.org/2000/svg">
<path fill-rule="evenodd" clip-rule="evenodd" d="M30.9458 7.04528L26.4982 4.47783C26.3606 4.39834 26.1905 4.39812 26.0529 4.47772C25.9154 4.55721 25.8299 4.70449 25.8299 4.86336V9.99826C25.8299 10.157 25.9152 10.3044 26.0527 10.3838C26.1204 10.4229 26.1972 10.4433 26.2754 10.4433C26.3537 10.4433 26.4304 10.423 26.4982 10.3838L30.9458 7.81634C31.0833 7.73696 31.1685 7.58967 31.1685 7.43081C31.1685 7.27194 31.0833 7.12454 30.9458 7.04528ZM50.5532 44.5766C50.6809 44.3678 50.6142 44.092 50.4056 43.9645L48.3646 42.7156C48.2272 42.6315 48.054 42.6282 47.9133 42.7066C47.7731 42.7848 47.6864 42.9346 47.6864 43.0949V48.2073L47.2258 48.0186C46.9647 47.9116 46.687 47.8565 46.4048 47.8565C45.2068 47.8565 44.2331 48.832 44.2331 50.0297C44.2331 51.2267 45.2076 52.2019 46.4048 52.2019C47.6021 52.2019 48.5769 51.227 48.5769 50.0297V43.8898L49.9401 44.7243C50.1492 44.8522 50.4252 44.7857 50.5532 44.5766ZM25.1585 36.8916L22.469 38.4447C20.8103 39.4026 18.6756 38.8297 17.7182 37.171C17.2557 36.3698 17.1358 35.4266 17.3753 34.5335C17.6154 33.6379 18.188 32.8841 18.9915 32.4202L21.681 30.8676L25.1585 36.8916ZM25.6469 37.6385L23.9563 38.6142L28.6224 44.8583L30.0508 43.5632L25.6469 37.6385ZM30.0833 21.3704C29.8995 21.0521 29.8522 20.6762 29.9473 20.3214C30.0425 19.9658 30.2707 19.6653 30.5894 19.4811C30.7988 19.3601 31.0345 19.2969 31.2762 19.2969C31.3987 19.2969 31.5202 19.3133 31.6386 19.3449C31.9948 19.4402 32.2951 19.6677 32.4795 19.9872L39.9806 32.9798C40.3615 33.6395 40.1342 34.4886 39.4742 34.8689C39.1559 35.0523 38.78 35.1011 38.4251 35.0058C38.0694 34.9103 37.7686 34.6826 37.5845 34.3635L30.0833 21.3704ZM22.2889 12.635C21.9709 12.635 21.7087 12.3722 21.7087 12.0543V2.80713C21.7087 2.48917 21.9708 2.22644 22.2889 2.22644H34.7095C35.0275 2.22644 35.2908 2.48917 35.2908 2.80713V12.0543C35.2908 12.3722 35.0275 12.635 34.7095 12.635H22.2889ZM47.4257 40.0782C51.4768 40.0782 54.773 43.3744 54.773 47.4255C54.773 51.4767 51.4768 54.7734 47.4257 54.7734C43.3737 54.7734 40.0778 51.4774 40.0778 47.4255C40.0778 43.3736 43.3738 40.0782 47.4257 40.0782ZM12.765 54.7735H2.22656V45.759H6.34804C6.59385 45.759 6.79302 45.5597 6.79302 45.314V41.1914H12.765V54.7735Z" fill="#06D6A0"/>
<path fill-rule="evenodd" clip-rule="evenodd" d="M47.3527 50.0297C47.3527 49.5064 46.9274 49.081 46.4051 49.081C45.8829 49.081 45.4581 49.5064 45.4581 50.0297C45.4581 50.552 45.8829 50.9774 46.4051 50.9774C46.9274 50.9774 47.3527 50.552 47.3527 50.0297ZM50.8385 44.7509C50.6133 45.1181 50.1335 45.2338 49.7662 45.0092L48.9113 44.4858V50.0297C48.9113 51.4111 47.7872 52.5359 46.4052 52.5359C45.0239 52.5359 43.8996 51.4111 43.8996 50.0297C43.8996 48.6467 45.0238 47.5225 46.4052 47.5225C46.7404 47.5225 47.0601 47.5895 47.3529 47.7096V43.0949C47.3529 42.8136 47.5053 42.5527 47.751 42.4149C47.9972 42.2782 48.2989 42.2834 48.5394 42.4306L50.5804 43.6795C50.9474 43.9043 51.0622 44.3842 50.8385 44.7509ZM54.4396 47.4257C54.4396 51.2933 51.2922 54.4396 47.4262 54.4396C43.5586 54.4396 40.4123 51.2933 40.4123 47.4257C40.4123 43.558 43.5587 40.4123 47.4262 40.4123C51.2922 40.4122 54.4396 43.558 54.4396 47.4257ZM38.9517 48.7295C30.9042 52.8942 20.9866 51.8345 13.9899 46.0432V40.746C13.9899 40.3154 13.64 39.967 13.2104 39.967H8.82888C5.38505 34.0741 4.77843 27.0298 7.17766 20.5664C9.49417 14.3251 14.3105 9.50152 20.4847 7.18656V12.0543C20.4847 13.0497 21.2941 13.8595 22.2893 13.8595H34.71C35.7054 13.8595 36.5157 13.0497 36.5157 12.0543V7.18656C42.5065 9.43606 47.2559 14.0858 49.6394 20.0866C52.0942 26.266 51.7558 33.1091 48.73 38.9527C48.3046 38.8867 47.8693 38.8537 47.4261 38.8537C42.6993 38.8537 38.8537 42.6989 38.8537 47.4256C38.8537 47.8689 38.8872 48.3042 38.9517 48.7295ZM12.4315 41.5254H7.12734V45.314C7.12734 45.7435 6.77899 46.093 6.34837 46.093H2.56088V54.4396H12.4313V41.5254H12.4315ZM3.66314 44.5345H5.56886V42.6277L3.66314 44.5345ZM22.0432 12.0543C22.0432 12.1879 22.1559 12.301 22.2894 12.301H34.7101C34.8437 12.301 34.9574 12.1879 34.9574 12.0543V2.80714C34.9574 2.67354 34.8437 2.56044 34.7101 2.56044H22.2893C22.1557 2.56044 22.0431 2.67366 22.0431 2.80714V12.0543H22.0432ZM55.9985 47.4257C55.9985 52.153 52.1518 55.998 47.4261 55.998C43.6988 55.998 40.5207 53.6066 39.3425 50.278C35.9368 51.9748 32.2322 52.8098 28.539 52.8098C23.379 52.8098 18.2468 51.1853 13.9899 48.0239V55.2185C13.9899 55.6497 13.64 55.998 13.2104 55.998H1.78147C1.35086 55.998 1.00195 55.6497 1.00195 55.2185V45.314C1.00195 45.107 1.08367 44.9085 1.2304 44.7629L5.79741 40.1949C5.94303 40.0493 6.14108 39.967 6.34849 39.967H7.0405C3.7522 33.8347 3.2588 26.6433 5.7157 20.0238C8.25954 13.1718 13.6249 7.91799 20.4848 5.52867V2.80714C20.4848 1.81175 21.2942 1.00195 22.2894 1.00195H34.7101C35.7055 1.00195 36.5158 1.81187 36.5158 2.80714V5.52855C43.1767 7.84975 48.4693 12.9175 51.0875 19.5114C53.6638 25.9982 53.3589 33.1704 50.2776 39.3436C53.606 40.5212 55.9985 43.6984 55.9985 47.4257ZM27.0554 8.64819L29.165 7.43071L27.0554 6.21322V8.64819ZM25.4964 9.99816C25.4964 10.2763 25.6457 10.5335 25.8861 10.6728C26.0077 10.7425 26.1423 10.7771 26.2759 10.7771C26.4105 10.7771 26.5452 10.7425 26.6656 10.6728L31.1132 8.10536C31.3537 7.96653 31.503 7.70936 31.503 7.4306C31.503 7.15239 31.3537 6.89522 31.1132 6.75584L26.6656 4.18839C26.4252 4.04912 26.1276 4.04912 25.8861 4.18839C25.6457 4.32777 25.4964 4.58494 25.4964 4.86315V9.99816ZM39.6919 33.1468L32.1907 20.1542C32.0519 19.9132 31.8256 19.7404 31.5527 19.6676C31.4616 19.643 31.3694 19.6309 31.2766 19.6309C31.0954 19.6309 30.9173 19.6776 30.757 19.7703C30.5165 19.9091 30.3436 20.1359 30.2702 20.4079C30.198 20.6798 30.2336 20.9626 30.3729 21.2037L37.8739 34.1969C38.0133 34.4374 38.2401 34.6097 38.512 34.6835C38.7844 34.7557 39.0673 34.7191 39.3077 34.5797C39.8093 34.2915 39.9816 33.6477 39.6919 33.1468ZM29.6024 43.5193L25.5566 38.0764L24.4492 38.7156L28.6704 44.3644L29.6024 43.5193ZM22.3025 38.1555L24.7028 36.7693L21.5591 31.3238L19.1588 32.7094C18.4354 33.127 17.9163 33.8059 17.6983 34.6199C17.4799 35.4334 17.5904 36.2805 18.0079 37.004C18.8749 38.5059 20.8011 39.0214 22.3025 38.1555ZM23.0584 30.8026L25.9039 35.7321C29.2771 34.2977 32.657 33.4963 35.6251 33.4171L29.9229 23.5409C28.3713 26.0722 25.9862 28.5977 23.0584 30.8026ZM36.6414 24.7463L37.9406 26.9958C38.3749 26.5794 38.4896 25.9052 38.1747 25.3609C37.861 24.817 37.2193 24.5781 36.6414 24.7463ZM40.0874 35.9301C41.3331 35.2109 41.7606 33.6132 41.0423 32.3674L38.7311 28.3652C39.906 27.5029 40.2696 25.8722 39.5252 24.5814C38.7803 23.2911 37.1846 22.7909 35.8513 23.3776L33.5412 19.3748C33.1938 18.7734 32.6307 18.3428 31.9571 18.162C31.2823 17.9807 30.5798 18.0729 29.979 18.4202C29.3766 18.7676 28.9454 19.3302 28.7652 20.0044C28.5849 20.6786 28.6761 21.3811 29.0235 21.9825V21.9835C27.6164 24.5829 25.2003 27.2352 22.1432 29.5401C22.1122 29.527 22.0797 29.515 22.0468 29.5066C21.8461 29.4526 21.6334 29.4809 21.4543 29.5842L18.3792 31.3596C17.2948 31.9856 16.519 33.0003 16.1926 34.2167C15.8667 35.4325 16.0323 36.6992 16.6582 37.7837C17.5278 39.2914 19.112 40.1337 20.738 40.1337C21.5353 40.1337 22.3436 39.9315 23.0818 39.505L23.0897 39.5003L27.4294 45.3073C27.6886 45.6547 28.0846 45.8773 28.5168 45.9197C28.5671 45.924 28.6169 45.9265 28.6661 45.9265C29.0522 45.9265 29.4278 45.7825 29.7159 45.5211L30.65 44.674C31.2456 44.1329 31.3315 43.2355 30.848 42.5865L26.7488 37.0681C30.2037 35.6307 33.6291 34.8973 36.5261 34.9774C36.8729 35.5772 37.4355 36.0083 38.1086 36.1885C38.3349 36.2482 38.5644 36.2786 38.7912 36.2786C39.2424 36.2785 39.6877 36.1606 40.0874 35.9301ZM41.0969 27.8134C41.0969 28.2435 41.4458 28.5924 41.8764 28.5924H44.6429C45.0725 28.5924 45.4224 28.2435 45.4224 27.8134C45.4224 27.3828 45.0725 27.0339 44.6429 27.0339H41.8764C41.4458 27.034 41.0969 27.3828 41.0969 27.8134ZM37.5121 21.6042C37.6347 21.6749 37.7694 21.7085 37.9009 21.7085C38.1702 21.7085 38.4331 21.5692 38.5766 21.3193L39.9601 18.9238C40.1754 18.5508 40.0471 18.0746 39.6741 17.8593C39.3027 17.6439 38.8249 17.7712 38.6102 18.1443L37.2271 20.5398C37.0114 20.9122 37.1392 21.3889 37.5121 21.6042ZM40.7176 23.8929C40.8622 24.1427 41.1241 24.2827 41.3934 24.2827C41.5259 24.2827 41.659 24.2492 41.7816 24.1779L44.053 22.8672C44.4259 22.6519 44.5538 22.1752 44.338 21.8023C44.1232 21.4298 43.6465 21.3025 43.2735 21.5173L41.0026 22.8285C40.6306 23.0438 40.5028 23.5205 40.7176 23.8929Z" fill="#024430"/>
</svg>
